<?xml version="1.0"?>
<svg xmlns="http://www.w3.org/2000/svg" id="Layer_1" enable-background="new 0 0 256 256" height="512px" viewBox="0 0 256 256" width="512px" class=""><g><g><g><g><g><path d="m159.893 150.251h-87.786c-14.26 0-25.82 11.56-25.82 25.82v32.402h21.007v24.127h96.049v-24.127h22.37c0-12.097 0-20.254 0-32.402 0-14.26-11.56-25.82-25.82-25.82z" fill="#4671c6" data-original="#4671C6" class="active-path" style="fill:#533672" data-old_color="#4671c6"/></g></g><g><g><path d="m46.287 208.473h21.007v24.127h-21.007z" fill="#f9cfcf" data-original="#F9CFCF"/></g></g><g><g><path d="m67.293 234.6h-21.006c-1.104 0-2-.896-2-2v-24.127c0-1.104.896-2 2-2h21.007c1.104 0 2 .896 2 2v24.127c-.001 1.104-.896 2-2.001 2zm-19.006-4h17.007v-20.127h-17.007z" fill="#3762cc" data-original="#3762CC" class=""/></g></g><g><g><path d="m163.343 208.473h22.37v24.127h-22.37z" fill="#f9cfcf" data-original="#F9CFCF"/></g></g><g><g><path d="m185.713 234.6h-22.37c-1.104 0-2-.896-2-2v-24.127c0-1.104.896-2 2-2h22.37c1.104 0 2 .896 2 2v24.127c0 1.104-.896 2-2 2zm-20.37-4h18.37v-20.127h-18.37z" fill="#3762cc" data-original="#3762CC" class=""/></g></g><g><g><path d="m163.343 210.473c-1.104 0-2-.896-2-2v-17.047c0-1.104.896-2 2-2s2 .896 2 2v17.047c0 1.104-.896 2-2 2z" fill="#3762cc" data-original="#3762CC" class=""/></g></g><g><g><path d="m90.182 127.789v24.527.003c0 14.245 11.548 25.792 25.793 25.792 14.238 0 25.793-11.54 25.793-25.795 0-4.962 0-19.399 0-24.527z" fill="#f9cfcf" data-original="#F9CFCF"/></g></g><g><g><path d="m163.343 234.6h-96.05c-1.104 0-2-.896-2-2v-22.127h-19.006c-1.104 0-2-.896-2-2v-32.403c0-15.34 12.48-27.819 27.82-27.819h16.076v-20.462c0-1.104.896-2 2-2h51.585c1.104 0 2 .896 2 2v20.462h16.126c15.34 0 27.819 12.479 27.819 27.819v32.402c0 1.104-.896 2-2 2h-20.37v22.128c0 1.104-.896 2-2 2zm-94.05-4h92.049v-22.127c0-1.104.896-2 2-2h20.37v-30.403c0-13.134-10.686-23.819-23.819-23.819h-18.126c-1.104 0-2-.896-2-2v-20.462h-47.584v20.462c0 1.104-.896 2-2 2h-18.077c-13.134 0-23.82 10.686-23.82 23.819v30.402h19.007c1.104 0 2 .896 2 2z" fill="#3762cc" data-original="#3762CC" class=""/></g></g><g><g><path d="m116 132.127c-33.404 0-60.483-27.079-60.483-60.483v-25.333c0-8.396 6.807-15.203 15.203-15.203h105.763v40.536c0 33.404-27.079 60.483-60.483 60.483z" fill="#4671c6" data-original="#4671C6" class="active-path" style="fill:#533672" data-old_color="#4671c6"/></g></g><g><g><path d="m116 134.127c-34.454 0-62.483-28.03-62.483-62.483v-25.333c0-9.485 7.717-17.203 17.203-17.203h105.764c1.104 0 2 .896 2 2v40.536c-.001 34.453-28.031 62.483-62.484 62.483zm-45.28-101.02c-7.28 0-13.203 5.923-13.203 13.203v25.333c0 32.248 26.235 58.483 58.483 58.483s58.483-26.235 58.483-58.483v-38.536z" fill="#3762cc" data-original="#3762CC" class=""/></g></g><g><g><path d="m167.514 75.732v-4.823c0-28.194-23.063-51.05-51.514-51.05-28.45 0-51.514 22.856-51.514 51.05v4.823c-8.945-.181-16.042 6.944-16.042 15.558 0 9.198 8.03 16.473 17.402 15.482 5.316 22.586 25.746 39.413 50.153 39.413 24.409 0 44.837-16.829 50.153-39.413 9.36.99 17.402-6.272 17.402-15.482.001-8.617-7.101-15.739-16.04-15.558z" fill="#f9cfcf" data-original="#F9CFCF"/></g></g><g><g><path d="m116 148.186c-24.432 0-45.45-16.087-51.69-39.325-4.395.039-8.747-1.578-12.05-4.551-3.696-3.325-5.816-8.071-5.816-13.019 0-4.736 1.872-9.179 5.27-12.509 2.937-2.878 6.705-4.607 10.772-4.978v-2.896c0-29.252 24.006-53.05 53.514-53.05s53.514 23.798 53.514 53.05v2.896c4.067.37 7.835 2.1 10.772 4.979 3.398 3.329 5.27 7.771 5.27 12.508 0 4.948-2.119 9.692-5.814 13.018-3.27 2.941-7.529 4.552-11.914 4.552-.046 0-.092 0-.138 0-6.241 23.238-27.258 39.325-51.69 39.325zm-50.152-43.414c.918 0 1.731.631 1.945 1.542 5.249 22.298 25.072 37.871 48.207 37.871s42.958-15.573 48.206-37.871c.231-.981 1.164-1.631 2.157-1.531 3.908.414 7.808-.843 10.702-3.448 2.854-2.567 4.49-6.229 4.49-10.044 0-3.652-1.445-7.08-4.069-9.651-2.648-2.597-6.183-3.992-9.932-3.907-.533-.012-1.057-.195-1.44-.571s-.601-.892-.601-1.429v-4.823c0-27.046-22.212-49.05-49.514-49.05s-49.514 22.004-49.514 49.05v4.823c0 .537-.216 1.053-.6 1.429s-.9.571-1.44.571c-3.776-.077-7.284 1.312-9.933 3.906-2.624 2.571-4.069 5.999-4.069 9.652 0 3.815 1.637 7.477 4.492 10.046 2.893 2.603 6.789 3.858 10.7 3.446.073-.007.143-.011.213-.011z" fill="#3762cc" data-original="#3762CC" class=""/></g></g><g><g><path d="m176.483 65.831h-80.82c-17.219 0-31.177-13.959-31.177-31.177 0-17.219 13.959-31.177 31.177-31.177h52.901c15.419 0 27.919 12.5 27.919 27.919z" fill="#4671c6" data-original="#4671C6" class="active-path" style="fill:#533672" data-old_color="#4671c6"/></g></g><g><g><path d="m176.483 67.831h-80.82c-18.294 0-33.177-14.884-33.177-33.178s14.884-33.177 33.178-33.177h52.901c16.497 0 29.919 13.422 29.919 29.919v34.437c-.001 1.104-.896 1.999-2.001 1.999zm-80.819-62.355c-16.088 0-29.177 13.089-29.177 29.178s13.089 29.178 29.177 29.178h78.82v-32.437c0-14.292-11.627-25.919-25.919-25.919z" fill="#3762cc" data-original="#3762CC" class=""/></g></g><g><g><path d="m67.293 210.473c-1.104 0-2-.896-2-2v-17.047c0-1.104.896-2 2-2s2 .896 2 2v17.047c0 1.104-.895 2-2 2z" fill="#3762cc" data-original="#3762CC" class=""/></g></g><g><g><path d="m130.649 132.279h.002c1.339.183 2.712.191 4.024-.133 4.81-1.187 8.378-5.53 8.378-10.707s-3.567-9.521-8.378-10.707c-1.312-.324-2.685-.316-4.024-.133-9.73 1.329-19.596 1.329-29.326 0-1.339-.183-2.712-.191-4.024.133-4.81 1.187-8.378 5.53-8.378 10.707s3.567 9.52 8.378 10.707c1.312.324 2.685.316 4.024.133h.002c9.728-1.329 19.593-1.329 29.322 0z" fill="#f9a7a7" data-original="#F9A7A7" class=""/></g></g><g><g><g><path d="m144.438 103.597c-.384 0-.771-.109-1.113-.34l-13.83-9.287c-.553-.371-.885-.994-.885-1.66s.332-1.289.885-1.66l13.83-9.287c.919-.619 2.16-.371 2.775.545.616.917.372 2.16-.545 2.775l-11.357 7.627 11.357 7.627c.917.615 1.161 1.858.545 2.775-.385.574-1.017.885-1.662.885z" fill="#3762cc" data-original="#3762CC" class=""/></g></g><g><g><path d="m150.812 94.31h-20.202c-1.104 0-2-.896-2-2s.896-2 2-2h20.201c1.104 0 2 .896 2 2s-.895 2-1.999 2z" fill="#3762cc" data-original="#3762CC" class=""/></g></g></g><g><g><g><path d="m87.511 103.597c-.644 0-1.276-.311-1.662-.885-.616-.917-.372-2.16.545-2.775l11.358-7.627-11.358-7.627c-.917-.615-1.162-1.858-.545-2.775.615-.916 1.857-1.163 2.775-.545l13.831 9.287c.553.371.885.994.885 1.66s-.332 1.289-.885 1.66l-13.831 9.287c-.342.23-.729.34-1.113.34z" fill="#3762cc" data-original="#3762CC" class=""/></g></g><g><g><path d="m101.34 94.31h-20.201c-1.104 0-2-.896-2-2s.896-2 2-2h20.201c1.104 0 2 .896 2 2s-.896 2-2 2z" fill="#3762cc" data-original="#3762CC" class=""/></g></g></g><g><g><g><g><path d="m222.287 95.065h-26.17c-1.522 0-2.755-1.233-2.755-2.755 0-1.521 1.233-2.755 2.755-2.755h26.17c1.522 0 2.755 1.233 2.755 2.755-.001 1.521-1.234 2.755-2.755 2.755z" fill="#f9a7a7" data-original="#F9A7A7" class=""/></g></g></g><g><g><g><path d="m189.414 71.179c-1.217-.913-1.464-2.64-.551-3.856l18.505-24.673c.915-1.218 2.643-1.463 3.857-.551 1.217.913 1.464 2.639.551 3.856l-18.505 24.673c-.916 1.22-2.645 1.461-3.857.551z" fill="#f9a7a7" data-original="#F9A7A7" class=""/></g></g></g><g><g><g><path d="m207.367 141.971-18.505-24.673c-.913-1.217-.665-2.943.551-3.856 1.215-.912 2.943-.667 3.857.551l18.505 24.673c.913 1.217.665 2.943-.551 3.856-1.213.91-2.941.669-3.857-.551z" fill="#f9a7a7" data-original="#F9A7A7" class=""/></g></g></g><g><g><g><path d="m35.883 95.065h-26.17c-1.521 0-2.755-1.233-2.755-2.755 0-1.521 1.233-2.755 2.755-2.755h26.17c1.521 0 2.755 1.233 2.755 2.755 0 1.521-1.233 2.755-2.755 2.755z" fill="#f9a7a7" data-original="#F9A7A7" class=""/></g></g></g><g><g><g><path d="m20.776 142.522c-1.217-.913-1.464-2.64-.551-3.856l18.505-24.673c.913-1.218 2.639-1.463 3.856-.551 1.217.913 1.464 2.64.551 3.856l-18.505 24.673c-.912 1.217-2.639 1.464-3.856.551z" fill="#f9a7a7" data-original="#F9A7A7" class=""/></g></g></g><g><g><g><path d="m38.73 70.628-18.505-24.674c-.913-1.217-.666-2.943.551-3.856s2.943-.666 3.856.551l18.505 24.673c.913 1.217.666 2.943-.551 3.856-1.216.913-2.943.667-3.856-.55z" fill="#f9a7a7" data-original="#F9A7A7" class=""/></g></g></g></g></g><g><g><g><circle cx="203" cy="203" fill="#f9a7a7" r="50" data-original="#F9A7A7" class=""/></g></g><g><g><path d="m212.899 203 20.192-20.192c2.737-2.737 2.736-7.163 0-9.899s-7.163-2.736-9.899 0l-20.192 20.192-20.192-20.192c-2.735-2.735-7.163-2.736-9.899 0-2.729 2.729-2.729 7.17 0 9.899l20.192 20.192-20.192 20.192c-2.729 2.729-2.729 7.17 0 9.899 2.734 2.734 7.164 2.737 9.899 0l20.192-20.192 20.192 20.192c2.734 2.734 7.164 2.737 9.899 0 2.737-2.737 2.736-7.163 0-9.899z" fill="#4671c6" data-original="#4671C6" class="active-path" style="fill:#533672" data-old_color="#4671c6"/></g></g><g><g><path d="m203 255c-28.673 0-52-23.327-52-52s23.327-52 52-52 52 23.327 52 52-23.327 52-52 52zm0-100c-26.468 0-48 21.532-48 48s21.532 48 48 48 48-21.532 48-48-21.532-48-48-48z" fill="#3762cc" data-original="#3762CC" class=""/></g></g></g></g></g> </svg>
