<?xml version="1.0"?>
<svg xmlns="http://www.w3.org/2000/svg" id="Capa_1" enable-background="new 0 0 512 512" height="512px" viewBox="0 0 512 512" width="512px" class=""><g><g><path d="m512 256c0 141.385-114.615 256-256 256s-256-114.615-256-256 114.615-256 256-256 256 114.615 256 256z" fill="#644189" data-original="#644189" class="active-path" style="fill:#FFFFFF00" data-old_color="#644189"/><path d="m320 170c0 82.843-67.157 150-150 150s-150-67.157-150-150 67.157-150 150-150 150 67.157 150 150z" fill="#ffe7c0" data-original="#FFE7C0"/><path d="m300 170c0 71.797-58.203 130-130 130s-130-58.203-130-130 58.203-130 130-130 130 58.203 130 130z" fill="#f44545" data-original="#F44545" class=""/><path d="m300 170c0 24.794-6.941 47.966-18.986 67.681-19.714 12.045-42.887 18.986-67.681 18.986-71.797 0-130-58.203-130-130 0-24.794 6.941-47.966 18.986-67.681 19.715-12.045 42.887-18.986 67.681-18.986 71.797 0 130 58.203 130 130z" fill="#fb5858" data-original="#FB5858" class=""/><path d="m219.388 218.891c-1.953 1.953-4.512 2.929-7.071 2.929s-5.118-.976-7.071-2.929l-35.246-35.245-35.246 35.246c-1.953 1.953-4.512 2.929-7.071 2.929s-5.118-.976-7.071-2.929c-3.905-3.905-3.905-10.237 0-14.143l35.246-35.246-34.251-34.251c-3.905-3.905-3.905-10.237 0-14.143 3.906-3.905 10.236-3.905 14.143 0l34.25 34.251 34.251-34.251c3.906-3.905 10.236-3.905 14.143 0 3.905 3.905 3.905 10.237 0 14.143l-34.251 34.251 35.246 35.246c3.904 3.905 3.904 10.237-.001 14.142z" fill="#fff5f5" data-original="#FFF5F5"/><path d="m69.329 477.502-27.67 2.421c-11.004.963-20.704-7.177-21.667-18.181l-13.392-153.066c-.963-11.004 7.177-20.704 18.181-21.667l27.67-2.421c11.004-.963 20.704 7.177 21.667 18.181l13.392 153.066c.962 11.004-7.178 20.704-18.181 21.667z" fill="#ffa90b" data-original="#FFA90B"/><path d="m493.742 440.371-425.13 37.194c-11.004.963-20.704-7.177-21.667-18.181l-13.391-153.067c-.963-11.004 7.177-20.704 18.181-21.667l425.13-37.194c11.004-.963 20.704 7.177 21.667 18.181l13.392 153.066c.961 11.004-7.178 20.705-18.182 21.668z" fill="#ffc14f" data-original="#FFC14F" class=""/><path d="m489.775 401.681-10.099-115.433c-.292-3.327-1.86-6.341-4.418-8.486-2.558-2.147-5.8-3.164-9.125-2.877l-426.021 37.272c-3.327.291-6.341 1.859-8.487 4.418-2.146 2.557-3.168 5.797-2.877 9.123l10.099 115.433c.292 3.327 1.86 6.341 4.418 8.486 2.272 1.906 5.082 2.926 8.012 2.926.369 0 .741-.017 1.113-.049l426.024-37.271h.001c6.864-.603 11.961-6.678 11.36-13.542zm-436.204 35.652-9.663-110.45 421.043-36.837 9.663 110.451zm130.435-40.403c.384 4.124-2.648 7.779-6.772 8.163-15.318 1.427-18.352 1.656-19.394 1.656-.226 0-.358-.011-.502-.022-3.643-.299-6.54-3.18-6.858-6.821l-4.64-53.036c-.361-4.126 2.691-7.764 6.818-8.125 4.122-.364 7.764 2.691 8.125 6.818l3.99 45.606c3.51-.313 7.702-.698 11.071-1.012 4.116-.385 7.778 2.649 8.162 6.773zm195.919-17.053c.361 4.126-2.692 7.764-6.818 8.125l-22.162 1.938c-.222.02-.443.028-.662.028-3.847.001-7.121-2.942-7.463-6.847l-4.602-52.596c-.361-4.126 2.691-7.764 6.818-8.125l22.162-1.939c4.124-.355 7.764 2.691 8.125 6.817.361 4.127-2.691 7.765-6.818 8.126l-14.691 1.285.994 11.355 13.056-1.142c4.118-.355 7.764 2.691 8.125 6.818.361 4.126-2.692 7.764-6.818 8.125l-13.056 1.142.993 11.355 14.691-1.285c4.123-.357 7.765 2.693 8.126 6.82zm34.624-62.464-14.588 1.276c-1.984.174-3.817 1.129-5.096 2.656-1.279 1.526-1.898 3.499-1.721 5.483 0 0 .001.012.003.035v.002l4.429 50.622c.04.461.122.908.24 1.339.282 1.793 1.206 3.431 2.609 4.599 1.353 1.127 3.053 1.737 4.799 1.737.227 0 .455-.011.683-.031.441-.04 10.847-.991 15.003-1.428 16.035-1.686 26.473-16.631 24.819-35.537-1.739-19.875-14.276-32.234-31.18-30.753zm4.793 51.373c-1.704.179-4.569.454-7.328.715-.545-6.013-1.277-14.119-1.643-18.298-.307-3.504-1.06-11.962-1.619-18.226l7.104-.621c12.358-1.078 14.555 12.829 14.929 17.117.783 8.933-2.453 18.369-11.443 19.313zm-287.938 30.124c-.809 1.154-1.699 2.249-2.648 3.254-4.847 5.144-11.385 8.211-18.906 8.87-1.006.088-2.009.131-3 .131-17.494.002-32.435-13.42-33.988-31.167-1.64-18.755 12.282-35.348 31.036-36.988 6.818-.593 13.568.839 19.531 4.149 3.621 2.011 4.927 6.576 2.916 10.197-2.011 3.623-6.577 4.927-10.198 2.916-3.336-1.853-7.122-2.653-10.94-2.319-10.515.92-18.321 10.223-17.401 20.737s10.228 18.333 20.737 17.4c3.852-.337 6.981-1.756 9.301-4.218.454-.48.882-1.008 1.275-1.568 2.377-3.394 7.053-4.219 10.446-1.84 3.391 2.377 4.215 7.054 1.839 10.446zm191.042-24.274c-.932 10.395-10.021 18.675-21.614 19.689-1.009.088-2.016.132-3.017.132-8.248 0-16.105-2.966-21.919-8.352-3.039-2.814-3.22-7.561-.405-10.599 2.815-3.039 7.56-3.22 10.599-.405 3.37 3.121 8.397 4.73 13.436 4.28 5.169-.452 7.779-3.831 7.981-6.085.311-3.471-5.261-5.266-6.976-5.732-8.525-2.324-16.145-4.947-16.465-5.058-.374-.129-.736-.288-1.085-.474-6.208-3.314-9.821-9.763-9.43-16.829.416-7.51 5.296-14.02 12.738-16.991 14.535-5.803 27.697 3.243 28.25 3.633 3.391 2.378 4.211 7.056 1.833 10.446-2.368 3.378-7.015 4.204-10.401 1.865-.246-.162-7.288-4.742-14.12-2.013-2.868 1.145-3.279 3.101-3.323 3.889-.035.642.08 1.769 1.145 2.536 2.047.689 8.22 2.729 14.804 4.522 14.322 3.906 18.673 13.691 17.969 21.546zm-75.421-34.11c-6.986-5.862-15.836-8.655-24.922-7.858-9.084.795-17.316 5.08-23.178 12.066s-8.653 15.837-7.858 24.921c.795 9.085 5.08 17.317 12.066 23.179 6.206 5.208 13.882 7.991 21.888 7.991 1.007 0 2.019-.044 3.034-.133 9.084-.795 17.316-5.08 23.178-12.066s8.652-15.837 7.858-24.921c-.795-9.085-5.08-17.317-12.066-23.179zm-7.282 38.458c-3.287 3.917-7.902 6.319-12.995 6.765-5.093.442-10.056-1.119-13.972-4.405-3.917-3.287-6.319-7.901-6.765-12.996-.446-5.093 1.119-10.055 4.405-13.972s7.901-6.319 12.995-6.765c.569-.05 1.136-.074 1.701-.074 4.488 0 8.792 1.561 12.271 4.479 3.917 3.287 6.319 7.901 6.765 12.995s-1.119 10.056-4.405 13.973z" fill="#fff" data-original="#FFF" class=""/><path d="m512 104.09v60.132c0 41.851-33.927 75.778-75.778 75.778h-84.982c-41.851 0-75.778-33.927-75.778-75.778v-60.132c0-41.851 33.927-75.778 75.778-75.778h84.982c41.851 0 75.778 33.927 75.778 75.778z" fill="#c2eaf2" data-original="#C2EAF2" class=""/><path d="m512 104.09v60.132c0 41.851-33.927 75.778-75.778 75.778h-45.98l-40.923 47.744c-1.228 1.432-3.02 2.256-4.906 2.256-4.293 0-7.393-4.109-6.213-8.237l13.231-46.307c-29.094-10.583-49.873-38.482-49.873-71.234v-60.132c0-41.851 33.927-75.778 75.778-75.778h58.887c41.85 0 75.777 33.927 75.777 75.778z" fill="#def4f8" data-original="#DEF4F8" class=""/><path d="m334.833 77.583c0-4.188 3.395-7.583 7.583-7.583s7.583 3.396 7.583 7.583c0 4.188-3.395 7.583-7.583 7.583-4.187.001-7.583-3.394-7.583-7.583zm7.473 23.279c-4.143 0-7.5 3.358-7.5 7.5v71.638c0 4.142 3.357 7.5 7.5 7.5s7.5-3.358 7.5-7.5v-71.638c0-4.142-3.357-7.5-7.5-7.5z" fill="#269ab1" data-original="#269AB1" class=""/><path d="m490 127.5c0 4.142-3.358 7.5-7.5 7.5h-95c-4.142 0-7.5-3.358-7.5-7.5s3.358-7.5 7.5-7.5h95c4.142 0 7.5 3.358 7.5 7.5zm-102.5-22.5h15c4.142 0 7.5-3.358 7.5-7.5s-3.358-7.5-7.5-7.5h-15c-4.142 0-7.5 3.358-7.5 7.5s3.358 7.5 7.5 7.5zm40 0h45c4.142 0 7.5-3.358 7.5-7.5s-3.358-7.5-7.5-7.5h-45c-4.142 0-7.5 3.358-7.5 7.5s3.358 7.5 7.5 7.5zm25 45h-65c-4.142 0-7.5 3.358-7.5 7.5s3.358 7.5 7.5 7.5h65c4.142 0 7.5-3.358 7.5-7.5s-3.358-7.5-7.5-7.5z" fill="#a6e0ec" data-original="#A6E0EC" class=""/></g></g> </svg>
