<?xml version="1.0"?>
<svg xmlns="http://www.w3.org/2000/svg" id="Capa_1" enable-background="new 0 0 512 512" height="512px" viewBox="0 0 512 512" width="512px" class=""><g><g><path d="m453.188 411.065c-46.008-171.147-180.706-305.958-351.788-352.128-2.757-.744-3.474-4.338-1.209-6.077 43.157-33.152 97.18-52.859 155.806-52.86 141.362-.001 256.004 114.64 256.003 256.002 0 58.8-19.825 112.969-53.154 156.19-1.623 2.104-4.968 1.44-5.658-1.127z" fill="#533672" data-original="#533672" class="" style="fill:#FFFFFF00" data-old_color="#533672"/><path d="m462.009 370.904c.001 13.702-.857 27.204-2.523 40.454-23.807 31.135-54.598 56.646-90.034 74.193-1.643.814-3.6-.19-3.94-1.992-32.188-170.514-166.595-304.91-337.116-337.079-1.779-.336-2.77-2.268-1.967-3.89 17.548-35.453 43.066-66.259 74.213-90.075 13.242-1.664 26.736-2.523 40.429-2.523 177.383-.002 320.926 143.53 320.938 320.912zm-162.009-330.904c0 5.523-4.477 10-10 10s-10-4.477-10-10 4.477-10 10-10 10 4.477 10 10zm180 230c-5.523 0-10 4.477-10 10s4.477 10 10 10 10-4.477 10-10-4.477-10-10-10zm-240-250c-5.523 0-10 4.477-10 10s4.477 10 10 10 10-4.477 10-10-4.477-10-10-10z" fill="#754ca0" data-original="#754CA0" class="" style="fill:#FFFFFF00" data-old_color="#754ca0"/><path d="m389.115 353.899c4.081-.127 7.537 3.017 7.693 7.097.128 3.319.192 6.654.192 10.004 0 41.032-9.654 79.81-26.814 114.186-34.375 17.16-73.153 26.814-114.184 26.814-51.037 0-98.634-15.013-138.607-40.854-2.132-1.378-1.989-8.712-4.061-10.146-64.24-44.447-101.929-109.394-104.834-193.086-.071-2.041-8.462-7.006-8.484-9.059-.011-.952-.016-1.905-.016-2.86.001-41.031 9.655-79.807 26.814-114.181 26.687-13.322 56.028-22.12 87.017-25.389 6.374-.672 12.054 3.98 12.766 10.349 14.287 127.852 122.737 227.251 254.403 227.251 2.715 0 5.42-.042 8.115-.126z" fill="#60c8dd" data-original="#60C8DD" class=""/><path d="m396.808 360.996c.128 3.319.192 6.654.192 10.004 0 32.284-5.977 63.172-16.883 91.618-28.446 10.906-59.334 16.882-91.617 16.882-141.385 0-256-114.615-256-256 0-32.283 5.976-63.171 16.881-91.617 20.36-7.806 41.971-13.087 64.449-15.458 6.374-.672 12.054 3.98 12.766 10.349 14.288 127.852 122.738 227.251 254.404 227.251 2.715 0 5.42-.042 8.115-.126 4.08-.127 7.536 3.017 7.693 7.097z" fill="#7cd2e3" data-original="#7CD2E3" class=""/><path d="m358.085 388.685c-60.305 40.601-97.28 64.859-122.994 50.997-18.138-9.777-11.127-27.985-34.498-49.497-33.456-30.795-68.478-12.5-82.496-34.498-20.029-31.433 43.827-80.786 23.999-133.493-9.353-24.862-27.206-23.57-34.498-49.498-4.919-17.488-2.394-37.981 5.019-56.14 9.32-1.028 18.79-1.556 28.383-1.556 138.438 0 251.21 109.887 255.851 247.195-11.419 8.049-24.327 16.769-38.766 26.49z" fill="#9bcf1b" data-original="#9BCF1B" class=""/><path d="m37.101 268.691c15.108 12.085 9.277 26.698 26.999 77.996 15.666 45.347 27.021 53.605 32.998 56.997 20.344 11.546 37.404.229 43.498 9 6.548 9.425-3.325 36.639-23.259 58.547-37.043-23.914-67.516-57.13-88.116-96.345-.813-1.547 1.561-8.369.779-9.935-8.555-17.132-12.44-29.897-17-48.951-.365-1.525-6.693-3.252-7.031-4.787-3.712-16.888-5.757-34.402-5.954-52.359 13.522-.995 27.344 2.045 37.086 9.837z" fill="#84b017" data-original="#84B017" class=""/><path d="m470 210c0 77.32-62.68 140-140 140s-140-62.68-140-140 62.68-140 140-140 140 62.68 140 140z" fill="#ffd993" data-original="#FFD993" class=""/><path d="m444.233 290.956c-25.367 35.73-67.077 59.044-114.233 59.044-77.32 0-140-62.68-140-140 0-47.156 23.314-88.866 59.044-114.233-16.227 22.855-25.767 50.792-25.767 80.956 0 77.32 62.68 140 140 140 30.165-.001 58.101-9.54 80.956-25.767z" fill="#ffc477" data-original="#FFC477" class=""/><path d="m440 210c0 60.751-49.249 110-110 110s-110-49.249-110-110 49.249-110 110-110 110 49.249 110 110z" fill="#fffac1" data-original="#FFFAC1" class=""/><path d="m425 195v30c0 5.523-4.477 10-10 10s-10-4.477-10-10v-7.5l-27.065 6.766c-.992 3.339-2.323 6.531-3.954 9.538l14.355 23.926 5.303-5.303c3.905-3.905 10.237-3.905 14.142 0s3.905 10.237 0 14.142l-21.213 21.213c-3.905 3.905-10.237 3.905-14.142 0s-3.905-10.237 0-14.142l5.303-5.303-23.926-14.355c-3.007 1.631-6.199 2.962-9.538 3.954l-6.765 27.064h7.5c5.523 0 10 4.477 10 10s-4.477 10-10 10h-30c-5.523 0-10-4.477-10-10s4.477-10 10-10h7.5l-6.766-27.065c-3.339-.992-6.531-2.323-9.538-3.954l-23.926 14.355 5.303 5.303c3.905 3.905 3.905 10.237 0 14.142s-10.237 3.905-14.142 0l-21.213-21.213c-3.905-3.905-3.905-10.237 0-14.142s10.237-3.905 14.142 0l5.303 5.303 14.355-23.926c-1.631-3.007-2.962-6.199-3.954-9.538l-27.064-6.765v7.5c0 5.523-4.477 10-10 10s-10-4.477-10-10v-30c0-5.523 4.477-10 10-10s10 4.477 10 10v7.5l27.065-6.766c.992-3.339 2.324-6.531 3.954-9.538l-14.355-23.926-5.303 5.303c-3.905 3.905-10.237 3.905-14.142 0-3.905-3.905-3.905-10.237 0-14.142l21.213-21.213c3.905-3.905 10.237-3.905 14.142 0s3.905 10.237 0 14.142l-5.303 5.303 23.926 14.355c3.007-1.631 6.199-2.962 9.538-3.954l6.765-27.064h-7.5c-5.523 0-10-4.477-10-10s4.477-10 10-10h30c5.523 0 10 4.477 10 10s-4.477 10-10 10h-7.5l6.766 27.065c3.339.992 6.531 2.323 9.538 3.954l23.926-14.355-5.303-5.303c-3.905-3.905-3.905-10.237 0-14.142s10.237-3.905 14.142 0l21.213 21.213c3.905 3.905 3.905 10.237 0 14.142-3.905 3.905-10.237 3.905-14.142 0l-5.303-5.303-14.355 23.926c1.631 3.007 2.962 6.199 3.954 9.538l27.064 6.765v-7.5c0-5.523 4.477-10 10-10s10 4.477 10 10z" fill="#f44545" data-original="#F44545" class=""/><path d="m287.574 132.218c3.905 3.905 3.905 10.237 0 14.142l-7.778 7.778c-3.905 3.905-10.237 3.905-14.142 0s-3.905-10.237 0-14.142l7.778-7.778c3.905-3.905 10.236-3.905 14.142 0zm-32.574 73.782v-11c0-5.523-4.477-10-10-10s-10 4.477-10 10v11c0 5.523 4.477 10 10 10s10-4.477 10-10zm11.361 46.426c-3.905-3.905-10.237-3.905-14.142 0s-3.905 10.237 0 14.142l7.778 7.778c3.905 3.905 10.237 3.905 14.142 0s3.905-10.237 0-14.142zm67.639-117.426h11c5.523 0 10-4.477 10-10s-4.477-10-10-10h-11c-5.523 0-10 4.477-10 10s4.477 10 10 10zm60.347 19.139c3.905-3.905 3.905-10.237 0-14.142l-7.778-7.778c-3.905-3.905-10.237-3.905-14.142 0s-3.905 10.237 0 14.142l7.778 7.778c3.905 3.905 10.237 3.905 14.142 0zm-.707 98.287-7.778 7.778c-3.905 3.905-3.905 10.237 0 14.142s10.237 3.905 14.142 0l7.778-7.778c3.905-3.905 3.905-10.237 0-14.142s-10.237-3.905-14.142 0zm21.36-67.426c-5.523 0-10 4.477-10 10v11c0 5.523 4.477 10 10 10s10-4.477 10-10v-11c0-5.523-4.477-10-10-10zm-85-25c-8.664 0-16.813 2.204-23.918 6.082-3.878 7.105-6.082 15.254-6.082 23.918 0 27.614 22.386 50 50 50 8.664 0 16.813-2.204 23.918-6.082 3.878-7.105 6.082-15.254 6.082-23.918 0-27.614-22.386-50-50-50zm15 125h-11c-5.523 0-10 4.477-10 10s4.477 10 10 10h11c5.523 0 10-4.477 10-10s-4.477-10-10-10z" fill="#f76c57" data-original="#F76C57" class=""/><path d="m334 204c0 5.523-4.477 10-10 10s-10-4.477-10-10 4.477-10 10-10 10 4.477 10 10zm5-30c-2.761 0-5 2.239-5 5s2.239 5 5 5 5-2.239 5-5-2.238-5-5-5zm15 10c-5.523 0-10 4.477-10 10s4.477 10 10 10 10-4.477 10-10-4.477-10-10-10z" fill="#c42d2d" data-original="#C42D2D" class=""/><path d="m49 344c0 13.699-8.102 25.506-19.776 30.89-2.94-5.597-5.679-11.315-8.207-17.147-.685-1.58.638-4.647-.016-6.244-2.581-6.302-4.293-11.209-6.375-17.75-.433-1.362-3.473-2.77-3.884-4.142-1.81-6.041-3.404-12.176-4.771-18.396 2.874-.788 5.902-1.211 9.029-1.211 18.778 0 34 15.222 34 34zm147 6c-18.778 0-34 15.222-34 34s15.222 34 34 34 34-15.222 34-34-15.222-34-34-34z" fill="#ffd993" data-original="#FFD993" class=""/><path d="m125 210c-8.284 0-15-6.716-15-15s6.716-15 15-15 15 6.716 15 15-6.716 15-15 15zm-50 150c-8.284 0-15 6.716-15 15s6.716 15 15 15 15-6.716 15-15-6.716-15-15-15zm200 0c-8.284 0-15 6.716-15 15s6.716 15 15 15 15-6.716 15-15-6.716-15-15-15zm-130-110c-8.284 0-15 6.716-15 15s6.716 15 15 15 15-6.716 15-15-6.716-15-15-15zm-130 79c-1.479 0-2.908.214-4.258.613 2.886 9.628 6.322 19.017 10.274 28.132 5.289-2.319 8.984-7.6 8.984-13.745 0-8.284-6.716-15-15-15zm181 40c-8.284 0-15 6.716-15 15s6.716 15 15 15 15-6.716 15-15-6.716-15-15-15z" fill="#fffac1" data-original="#FFFAC1" class=""/><path d="m150 80c0 5.523-4.477 10-10 10s-10-4.477-10-10 4.477-10 10-10 10 4.477 10 10zm280 280c-5.523 0-10 4.477-10 10s4.477 10 10 10 10-4.477 10-10-4.477-10-10-10z" fill="#9773bd" data-original="#9773BD" class="active-path" style="fill:#FFFFFF00" data-old_color="#9773bd"/></g></g> </svg>
