<?xml version="1.0"?>
<svg xmlns="http://www.w3.org/2000/svg" id="Layer_1" enable-background="new 0 0 256 256" height="512px" viewBox="0 0 256 256" width="512px" class=""><g><g><g><g><path d="m82.474 150.312h-60.628c-9.848 0-17.832 8.017-17.832 17.906v22.471h15.855v16.431h64.581v-16.431h15.855c0-8.389 0-14.046 0-22.471 0-9.89-7.983-17.906-17.831-17.906z" fill="#4671c6" data-original="#4671C6" class="" style="fill:#533672" data-old_color="#4671c6"/></g></g><g><g><path d="m33.972 134.735v17.012c0 9.879 7.975 17.887 17.813 17.887 9.833 0 17.813-8.003 17.813-17.889 0-3.441 0-13.453 0-17.01z" fill="#f9cfcf" data-original="#F9CFCF" class=""/></g></g><g><g><path d="m4.015 190.688h15.855v16.431h-15.855z" fill="#f9cfcf" data-original="#F9CFCF" class=""/></g></g><g><g><path d="m84.45 190.688h15.855v16.431h-15.855z" fill="#f9cfcf" data-original="#F9CFCF" class=""/></g></g><g><g><path d="m100.306 209.119h-96.291c-1.104 0-2-.896-2-2v-38.901c0-10.977 8.896-19.906 19.832-19.906h10.126v-13.577c0-1.104.896-2 2-2h35.625c1.104 0 2 .896 2 2v13.577h10.876c10.936 0 19.832 8.93 19.832 19.906v38.901c0 1.105-.896 2-2 2zm-94.291-4h92.291v-36.901c0-8.771-7.103-15.906-15.832-15.906h-12.876c-1.104 0-2-.896-2-2v-13.577h-31.625v13.577c0 1.104-.896 2-2 2h-12.126c-8.729 0-15.832 7.136-15.832 15.906z" fill="#3762cc" data-original="#3762CC" class=""/></g></g><g><g><path d="m19.869 209.119c-1.104 0-2-.896-2-2v-28.404c0-1.104.896-2 2-2s2 .896 2 2v28.404c0 1.105-.895 2-2 2z" fill="#3762cc" data-original="#3762CC" class=""/></g></g><g><g><path d="m84.45 209.119c-1.104 0-2-.896-2-2v-28.404c0-1.104.896-2 2-2s2 .896 2 2v28.404c0 1.105-.895 2-2 2z" fill="#3762cc" data-original="#3762CC" class=""/></g></g><g><g><path d="m19.869 209.119h-15.854c-1.104 0-2-.896-2-2v-16.432c0-1.104.896-2 2-2h15.854c1.104 0 2 .896 2 2v16.432c0 1.105-.895 2-2 2zm-13.854-4h11.854v-12.432h-11.854z" fill="#3762cc" data-original="#3762CC" class=""/></g></g><g><g><path d="m100.306 209.119h-15.856c-1.104 0-2-.896-2-2v-16.432c0-1.104.896-2 2-2h15.855c1.104 0 2 .896 2 2v16.432c.001 1.105-.895 2-1.999 2zm-13.856-4h11.855v-12.432h-11.855z" fill="#3762cc" data-original="#3762CC" class=""/></g></g><g><g><g><path d="m52.131 137.73c-23.069 0-41.771-18.701-41.771-41.771v-17.495c0-5.799 4.701-10.5 10.5-10.5h73.042v27.996c-.001 23.069-18.702 41.77-41.771 41.77z" fill="#4671c6" data-original="#4671C6" class="" style="fill:#533672" data-old_color="#4671c6"/></g></g><g><g><path d="m52.131 139.73c-24.136 0-43.771-19.636-43.771-43.771v-17.495c0-6.893 5.607-12.5 12.5-12.5h73.042c1.104 0 2 .896 2 2v27.996c-.001 24.135-19.636 43.77-43.771 43.77zm-31.272-69.766c-4.687 0-8.5 3.813-8.5 8.5v17.496c0 21.93 17.842 39.771 39.771 39.771s39.771-17.841 39.771-39.771v-25.996z" fill="#3762cc" data-original="#3762CC" class=""/></g></g><g><g><path d="m87.707 98.783v-3.331c0-19.471-15.928-35.256-35.576-35.256-19.648 0-35.576 15.785-35.576 35.256v3.331c-6.178-.125-11.079 4.796-11.079 10.745 0 6.352 5.545 11.377 12.018 10.692 3.672 15.598 17.781 27.219 34.637 27.219 16.857 0 30.966-11.622 34.637-27.219 6.464.684 12.018-4.331 12.018-10.692 0-5.952-4.905-10.87-11.079-10.745z" fill="#f9cfcf" data-original="#F9CFCF" class=""/></g></g><g><g><path d="m70.588 116.396c-2.483 0-4.497-2.013-4.497-4.497v-4.796c0-2.483 2.013-4.497 4.497-4.497 2.483 0 4.497 2.013 4.497 4.497v4.796c-.001 2.484-2.014 4.497-4.497 4.497z" fill="#3762cc" data-original="#3762CC" class=""/></g></g><g><g><path d="m33.639 116.396c-2.483 0-4.497-2.013-4.497-4.497v-4.796c0-2.483 2.013-4.497 4.497-4.497 2.483 0 4.497 2.013 4.497 4.497v4.796c-.001 2.484-2.014 4.497-4.497 4.497z" fill="#3762cc" data-original="#3762CC" class=""/></g></g><g><g><path d="m52.131 149.439c-16.997 0-31.641-11.088-36.171-27.164-3.047-.089-5.985-1.247-8.263-3.296-2.683-2.414-4.222-5.859-4.222-9.451 0-3.438 1.358-6.663 3.824-9.08 1.996-1.956 4.519-3.181 7.254-3.549v-1.447c0-20.543 16.857-37.256 37.577-37.256s37.576 16.713 37.576 37.256v1.446c2.735.369 5.259 1.594 7.255 3.55 2.466 2.417 3.824 5.642 3.824 9.08 0 3.592-1.538 7.036-4.221 9.449-2.277 2.05-5.218 3.209-8.264 3.298-4.529 16.077-19.173 27.164-36.169 27.164zm-34.635-31.219c.918 0 1.73.631 1.945 1.542 3.558 15.118 17 25.678 32.689 25.678 15.688 0 29.131-10.56 32.689-25.678.231-.981 1.159-1.632 2.157-1.531 2.57.273 5.016-.521 6.913-2.227 1.84-1.655 2.896-4.016 2.896-6.476 0-2.354-.932-4.564-2.624-6.223-1.711-1.676-3.95-2.586-6.415-2.522-.49-.011-1.056-.195-1.439-.571s-.601-.892-.601-1.429v-3.331c0-18.337-15.063-33.256-33.576-33.256-18.515 0-33.577 14.919-33.577 33.256v3.331c0 .537-.216 1.053-.601 1.429-.384.376-.925.564-1.439.571-2.472-.067-4.705.847-6.414 2.521-1.692 1.658-2.624 3.869-2.624 6.224 0 2.46 1.056 4.82 2.896 6.478 1.896 1.706 4.347 2.497 6.912 2.225.071-.007.143-.011.213-.011z" fill="#3762cc" data-original="#3762CC" class=""/></g></g><g><g><path d="m93.901 91.945h-55.815c-11.892 0-21.532-9.64-21.532-21.532 0-11.892 9.64-21.532 21.532-21.532h36.534c10.649 0 19.281 8.632 19.281 19.281z" fill="#4671c6" data-original="#4671C6" class="" style="fill:#533672" data-old_color="#4671c6"/></g></g><g><g><path d="m93.901 93.945h-55.815c-12.976 0-23.532-10.557-23.532-23.532s10.556-23.532 23.532-23.532h36.534c11.734 0 21.281 9.547 21.281 21.281v23.783c0 1.105-.895 2-2 2zm-55.815-43.064c-10.771 0-19.532 8.762-19.532 19.532s8.762 19.532 19.532 19.532h53.815v-21.783c0-9.529-7.752-17.281-17.281-17.281z" fill="#3762cc" data-original="#3762CC" class=""/></g></g><g><g><path d="m52.131 131.201c-1.523 0-2.853-.179-4.063-.547-2.009-.611-3.771-1.641-5.095-2.975-.583-.589-.579-1.538.009-2.122.589-.584 1.537-.578 2.122.009.975.983 2.302 1.75 3.837 2.218.924.28 1.967.417 3.19.417s2.267-.137 3.189-.417c1.536-.468 2.863-1.234 3.838-2.218.585-.587 1.533-.593 2.122-.009.588.584.592 1.533.009 2.122-1.324 1.335-3.086 2.363-5.096 2.975-1.21.368-2.539.547-4.062.547z" fill="#3762cc" data-original="#3762CC" class=""/></g></g></g><g><g><g><circle cx="209.735" cy="86.779" fill="#f9cfcf" r="14.718" data-original="#F9CFCF" class=""/></g></g><g><g><path d="m227.073 127.825h-34.675v-8.991c0-9.575 7.762-17.337 17.337-17.337 9.575 0 17.337 7.762 17.337 17.337v8.991z" fill="#6bdddd" data-original="#6BDDDD" class=""/></g></g><g><g><path d="m209.735 103.497c-9.218 0-16.718-7.5-16.718-16.718s7.5-16.718 16.718-16.718 16.718 7.5 16.718 16.718-7.5 16.718-16.718 16.718zm0-29.435c-7.013 0-12.718 5.705-12.718 12.718s5.705 12.718 12.718 12.718 12.718-5.705 12.718-12.718-5.705-12.718-12.718-12.718z" fill="#3762cc" data-original="#3762CC" class=""/></g></g><g><g><path d="m227.072 129.825h-34.674c-1.104 0-2-.896-2-2v-8.991c0-10.662 8.675-19.337 19.337-19.337s19.337 8.675 19.337 19.337v8.991c0 1.105-.895 2-2 2zm-32.674-4h30.674v-6.991c0-8.457-6.88-15.337-15.337-15.337s-15.337 6.88-15.337 15.337z" fill="#3762cc" data-original="#3762CC" class=""/></g></g><g><g><circle cx="184.823" cy="117.543" fill="#f9cfcf" r="14.718" data-original="#F9CFCF" class=""/></g></g><g><g><path d="m202.16 158.589h-34.675v-8.991c0-9.575 7.762-17.337 17.337-17.337 9.575 0 17.337 7.762 17.337 17.337v8.991z" fill="#6bdddd" data-original="#6BDDDD" class=""/></g></g><g><g><path d="m184.822 134.261c-9.218 0-16.718-7.5-16.718-16.718s7.5-16.718 16.718-16.718 16.718 7.5 16.718 16.718-7.5 16.718-16.718 16.718zm0-29.436c-7.013 0-12.718 5.705-12.718 12.718s5.705 12.718 12.718 12.718 12.718-5.705 12.718-12.718-5.705-12.718-12.718-12.718z" fill="#3762cc" data-original="#3762CC" class=""/></g></g><g><g><path d="m202.16 160.589h-34.675c-1.104 0-2-.896-2-2v-8.99c0-10.663 8.675-19.338 19.337-19.338 10.663 0 19.338 8.675 19.338 19.338v8.99c0 1.104-.895 2-2 2zm-32.675-4h30.675v-6.99c0-8.457-6.881-15.338-15.338-15.338s-15.337 6.881-15.337 15.338z" fill="#3762cc" data-original="#3762CC" class=""/></g></g><g><g><circle cx="234.648" cy="117.543" fill="#f9cfcf" r="14.718" data-original="#F9CFCF" class=""/></g></g><g><g><path d="m251.985 158.589h-34.675v-8.991c0-9.575 7.762-17.337 17.337-17.337 9.575 0 17.337 7.762 17.337 17.337v8.991z" fill="#6bdddd" data-original="#6BDDDD" class=""/></g></g><g><g><path d="m234.648 134.261c-9.219 0-16.719-7.5-16.719-16.718s7.5-16.718 16.719-16.718c9.218 0 16.718 7.5 16.718 16.718s-7.5 16.718-16.718 16.718zm0-29.436c-7.013 0-12.719 5.705-12.719 12.718s5.706 12.718 12.719 12.718 12.718-5.705 12.718-12.718-5.705-12.718-12.718-12.718z" fill="#3762cc" data-original="#3762CC" class=""/></g></g><g><g><path d="m251.985 160.589h-34.675c-1.104 0-2-.896-2-2v-8.99c0-10.663 8.675-19.338 19.338-19.338 10.662 0 19.337 8.675 19.337 19.338v8.99c0 1.104-.895 2-2 2zm-32.674-4h30.675v-6.99c0-8.457-6.88-15.338-15.337-15.338s-15.338 6.881-15.338 15.338z" fill="#3762cc" data-original="#3762CC" class=""/></g></g><g><g><circle cx="209.735" cy="134.236" fill="#f9cfcf" r="17.822" data-original="#F9CFCF" class=""/></g></g><g><g><path d="m230.729 183.939h-41.988v-10.887c0-11.595 9.399-20.994 20.994-20.994 11.595 0 20.994 9.399 20.994 20.994z" fill="#6bdddd" data-original="#6BDDDD" class=""/></g></g><g><g><path d="m209.735 154.059c-10.93 0-19.822-8.893-19.822-19.822s8.893-19.822 19.822-19.822 19.822 8.893 19.822 19.822-8.892 19.822-19.822 19.822zm0-35.645c-8.725 0-15.822 7.098-15.822 15.822s7.098 15.822 15.822 15.822 15.822-7.098 15.822-15.822-7.097-15.822-15.822-15.822z" fill="#3762cc" data-original="#3762CC" class=""/></g></g><g><g><path d="m230.729 185.938h-41.988c-1.104 0-2-.896-2-2v-10.887c0-12.679 10.315-22.993 22.994-22.993s22.994 10.314 22.994 22.993v10.887c0 1.105-.895 2-2 2zm-39.988-4h37.988v-8.887c0-10.473-8.521-18.993-18.994-18.993s-18.994 8.521-18.994 18.993z" fill="#3762cc" data-original="#3762CC" class=""/></g></g></g><g><g><g><path d="m133.985 238h-10c-1.657 0-3-1.343-3-3v-214c0-1.657 1.343-3 3-3h10c1.657 0 3 1.343 3 3v214c0 1.657-1.343 3-3 3z" fill="#a4c9ff" data-original="#A4C9FF" class="active-path" style="fill:#BF8FF1" data-old_color="#a4c9ff"/></g></g><g><g><path d="m164.627 131.881-11.323-8.692c-1.316-1.01-3.218-.072-3.218 1.586v3.026h-42.203v-3.026c0-1.658-1.902-2.596-3.218-1.586l-11.323 8.692c-1.043.801-1.043 2.372 0 3.173l11.323 8.692c1.316 1.01 3.218.072 3.218-1.586v-3.026h42.203v3.026c0 1.658 1.902 2.596 3.218 1.586l11.323-8.692c1.043-.801 1.043-2.373 0-3.173z" fill="#f9a7a7" data-original="#F9A7A7" class=""/></g></g><g><g><path d="m105.879 146.164c-.861 0-1.714-.281-2.431-.831l-11.322-8.693c-.994-.763-1.564-1.919-1.564-3.173 0-1.253.57-2.409 1.564-3.172l11.322-8.692c1.218-.936 2.828-1.094 4.205-.415 1.376.678 2.23 2.053 2.23 3.587v1.026h38.203v-1.026c0-1.534.854-2.909 2.23-3.587 1.378-.679 2.988-.521 4.205.414l11.322 8.693c.994.763 1.564 1.919 1.564 3.172 0 1.254-.57 2.41-1.564 3.173l-11.322 8.692c-1.217.936-2.829 1.094-4.204.415-1.377-.679-2.231-2.053-2.231-3.588v-1.026h-38.203v1.026c0 1.535-.854 2.909-2.231 3.588-.565.279-1.172.417-1.773.417zm57.53-12.697-11.322-8.692v3.026c0 1.104-.896 2-2 2h-42.203c-1.104 0-2-.896-2-2v-3.026l-11.322 8.692 11.322 8.693v-3.027c0-1.104.896-2 2-2h42.203c1.104 0 2 .896 2 2v3.026z" fill="#3762cc" data-original="#3762CC" class=""/></g></g></g></g></g> </svg>
