<?xml version="1.0"?>
<svg xmlns="http://www.w3.org/2000/svg" id="Layer_1" enable-background="new 0 0 256 256" height="512px" viewBox="0 0 256 256" width="512px" class=""><g><g><g><g><path d="m198.57 145.445c-.115-6.29-5.512-11.212-11.803-11.212h-13.085c6.381 0 11.541-5.232 11.424-11.64-.115-6.29-5.512-11.212-11.803-11.212h-84.314l6.32-4.418c8.966-6.267 11.157-18.614 4.896-27.583-1.716-2.457-5.107-3.06-7.564-1.343-58.616 40.971-54.906 38.321-55.525 38.914-4.023 3.022-7.195 7.109-9.111 11.84h-15.637c-2.209 0-4 1.791-4 4v52.585h19.637c4.133 10.207 14.135 17.411 25.824 17.411h108.126c6.31 0 11.426-5.115 11.426-11.426 0-6.31-5.116-11.426-11.426-11.426h15.581c6.291 0 11.688-4.922 11.803-11.212.117-6.408-5.042-11.64-11.424-11.64h9.23c6.382.002 11.542-5.229 11.425-11.638z" fill="#f9cfcf" data-original="#F9CFCF" class=""/></g></g><g><g><path d="m161.956 204.788h-108.126c-11.77 0-22.277-6.789-27.14-17.411h-18.322c-1.104 0-2-.896-2-2v-52.584c0-3.309 2.691-6 6-6h14.323c2.047-4.461 5.168-8.359 9.093-11.341.357-.376 1.291-1.029 20.803-14.659 8.034-5.612 19.246-13.446 34.909-24.393 1.625-1.138 3.6-1.573 5.555-1.224 1.956.347 3.658 1.435 4.794 3.061 6.882 9.857 4.464 23.479-5.39 30.367l-1.113.779h77.961c7.478 0 13.669 5.91 13.803 13.175.066 3.635-1.299 7.065-3.844 9.656-.006.007-.013.013-.02.02h3.524c7.478 0 13.669 5.911 13.803 13.175.066 3.635-1.299 7.065-3.844 9.656-2.469 2.514-5.743 3.933-9.253 4.016.008.008.016.016.023.024 2.545 2.592 3.91 6.021 3.844 9.657-.134 7.265-6.325 13.175-13.803 13.175h-6.029c2.395 2.426 3.874 5.756 3.874 9.426.001 7.402-6.022 13.425-13.425 13.425zm-151.588-21.411h17.638c.814 0 1.548.494 1.854 1.25 3.976 9.817 13.384 16.161 23.971 16.161h108.126c5.197 0 9.426-4.229 9.426-9.426s-4.229-9.426-9.426-9.426c-1.104 0-2-.896-2-2s.896-2 2-2h15.581c5.312 0 9.71-4.148 9.803-9.248.047-2.553-.911-4.961-2.698-6.781-1.786-1.82-4.175-2.822-6.726-2.822-1.104 0-2-.896-2-2s.896-2 2-2h9.229c2.551 0 4.939-1.002 6.727-2.822 1.786-1.819 2.744-4.228 2.697-6.781-.093-5.1-4.491-9.249-9.803-9.249h-13.085c-1.104 0-2-.896-2-2s.896-2 2-2c2.551 0 4.939-1.002 6.727-2.822 1.786-1.819 2.744-4.228 2.697-6.781-.093-5.1-4.49-9.248-9.803-9.248h-84.314c-.873 0-1.646-.566-1.907-1.399-.263-.833.046-1.74.762-2.24l6.32-4.418c8.046-5.625 10.021-16.749 4.401-24.798-.524-.75-1.311-1.252-2.214-1.413-.902-.16-1.813.04-2.563.564-15.664 10.948-26.876 18.781-34.911 24.394-16.066 11.224-19.731 13.785-20.247 14.193-.035.038-.075.079-.13.131-.058.056-.119.107-.183.155-3.769 2.831-6.693 6.632-8.458 10.992-.306.755-1.039 1.25-1.854 1.25h-15.637c-1.103 0-2 .897-2 2z" fill="#3762cc" data-original="#3762CC" class=""/></g></g><g><g><path d="m173.682 136.234h-69.36c-1.104 0-2-.896-2-2s.896-2 2-2h69.36c1.104 0 2 .896 2 2s-.896 2-2 2z" fill="#3762cc" data-original="#3762CC" class=""/></g></g><g><g><path d="m187.146 159.085h-82.824c-1.104 0-2-.896-2-2s.896-2 2-2h82.824c1.104 0 2 .896 2 2s-.896 2-2 2z" fill="#3762cc" data-original="#3762CC" class=""/></g></g><g><g><path d="m177.916 181.937h-73.595c-1.104 0-2-.896-2-2s.896-2 2-2h73.595c1.104 0 2 .896 2 2s-.895 2-2 2z" fill="#3762cc" data-original="#3762CC" class=""/></g></g><g><g><path d="m51.063 149.813c-.892 0-1.704-.6-1.937-1.503-.274-1.07.37-2.16 1.44-2.435 9.93-2.55 17.881-10.248 20.749-20.09l.865-2.968c.607-2.083 1.934-3.893 3.736-5.098l11.959-7.999c.919-.614 2.159-.367 2.774.551.614.918.368 2.16-.55 2.774l-11.96 7.999c-1.022.684-1.775 1.711-2.12 2.893l-.865 2.968c-3.262 11.192-12.302 19.946-23.595 22.845-.163.042-.331.063-.496.063z" fill="#3762cc" data-original="#3762CC" class=""/></g></g><g><g><path d="m174.715 56.903h47.714v116.117h-47.714z" fill="#a4c9ff" data-original="#A4C9FF" class=""/></g></g><g><g><path d="m227.298 50.666h-57.453v-45.678c0-1.098.89-1.988 1.988-1.988h53.477c1.098 0 1.988.89 1.988 1.988z" fill="#4671c6" data-original="#4671C6" class="active-path" style="fill:#533672" data-old_color="#4671c6"/></g></g><g><g><path d="m229.884 50.666h-62.624c-1.098 0-1.988.89-1.988 1.988v8.497c0 1.098.89 1.988 1.988 1.988h62.624c1.098 0 1.988-.89 1.988-1.988v-8.497c0-1.098-.89-1.988-1.988-1.988z" fill="#4671c6" data-original="#4671C6" class="active-path" style="fill:#533672" data-old_color="#4671c6"/></g></g><g><g><path d="m227.298 52.666h-57.453c-1.104 0-2-.896-2-2v-45.678c0-2.199 1.789-3.988 3.988-3.988h53.478c2.198 0 3.987 1.789 3.987 3.988v45.678c0 1.105-.896 2-2 2zm-55.454-4h53.454v-43.678l-53.465.012z" fill="#3762cc" data-original="#3762CC" class=""/></g></g><g><g><path d="m229.884 65.139h-62.624c-2.199 0-3.988-1.789-3.988-3.988v-8.497c0-2.199 1.789-3.988 3.988-3.988h62.624c2.199 0 3.988 1.789 3.988 3.988v8.497c0 2.199-1.789 3.988-3.988 3.988zm-62.624-12.473.012 8.485 62.612-.012-.012-8.473zm62.624 0h.01z" fill="#3762cc" data-original="#3762CC" class=""/></g></g><g><g><g><path d="m186.644 136.222c-1.098 0-1.988-.89-1.988-1.988v-54.5c0-1.098.89-1.988 1.988-1.988s1.988.89 1.988 1.988v54.5c0 1.097-.891 1.988-1.988 1.988z" fill="#e0ebfc" data-original="#E0EBFC" class=""/></g></g></g><g><g><g><path d="m198.572 123.076c-1.098 0-1.988-.89-1.988-1.988v-51.141c0-1.098.89-1.988 1.988-1.988s1.988.89 1.988 1.988v51.141c0 1.098-.89 1.988-1.988 1.988z" fill="#e0ebfc" data-original="#E0EBFC" class=""/></g></g></g><g><g><g><path d="m210.5 136.222c-1.098 0-1.988-.89-1.988-1.988v-54.5c0-1.098.89-1.988 1.988-1.988s1.988.89 1.988 1.988v54.5c.001 1.097-.89 1.988-1.988 1.988z" fill="#e0ebfc" data-original="#E0EBFC" class=""/></g></g></g><g><g><g><path d="m239.494 194.714c5.003-4.628 8.138-11.245 8.138-18.597 0-13.99-11.341-25.332-25.332-25.332-1.839 0-3.63.201-5.358.573.004-.191.014-.381.014-.573 0-14.402-11.675-26.077-26.077-26.077-4.697 0-9.1 1.248-12.906 3.421-4.105-9.014-13.186-15.284-23.737-15.284-11.892 0-21.917 7.963-25.053 18.846-3.155-1.355-6.63-2.108-10.281-2.108-14.402 0-26.077 11.675-26.077 26.077s11.675 26.077 26.077 26.077c11.892 0 21.917-7.963 25.053-18.846 3.155 1.355 6.63 2.108 10.281 2.108 4.697 0 9.1-1.248 12.906-3.421 4.105 9.014 13.186 15.284 23.737 15.284 2.098 0 4.135-.255 6.089-.722.006 7.343 3.14 13.951 8.137 18.574-5.003 4.628-8.138 11.245-8.138 18.597 0 13.99 11.341 25.332 25.332 25.332 13.99 0 25.332-11.341 25.332-25.332.001-7.352-3.135-13.969-8.137-18.597z" fill="#e0ebfc" data-original="#E0EBFC" class=""/></g></g><g><g><path d="m176.376 154.705c-.361 0-.728-.098-1.057-.304-.938-.584-1.223-1.818-.639-2.755 2.377-3.81 3.633-8.209 3.633-12.722 0-8.296-4.189-15.905-11.207-20.353-.934-.591-1.21-1.827-.619-2.76.592-.933 1.828-1.209 2.76-.619 8.182 5.186 13.066 14.057 13.066 23.731 0 5.262-1.466 10.394-4.238 14.839-.38.609-1.032.943-1.699.943z" fill="#3762cc" data-original="#3762CC" class=""/></g></g></g><g><g><path d="m222.3 240.643c-15.07 0-27.331-12.261-27.331-27.332 0-6.897 2.642-13.565 7.31-18.597-4.117-4.438-6.658-10.15-7.2-16.169-1.393.211-2.798.317-4.198.317-10.268 0-19.712-5.656-24.613-14.572-6.539 3.104-14.274 3.537-21.073 1.219-4.064 10.833-14.581 18.228-26.291 18.228-15.481 0-28.077-12.595-28.077-28.077s12.596-28.077 28.077-28.077c3.106 0 6.14.501 9.043 1.491 4.065-10.834 14.581-18.229 26.291-18.229 10.268 0 19.712 5.656 24.613 14.572 3.746-1.778 7.864-2.71 12.03-2.71 14.881 0 27.096 11.638 28.02 26.291 1.131-.142 2.268-.213 3.4-.213 15.071 0 27.332 12.261 27.332 27.332 0 6.896-2.642 13.563-7.31 18.597 4.668 5.033 7.31 11.701 7.31 18.597-.001 15.071-12.262 27.332-27.333 27.332zm-25.331-66.503c.444 0 .882.148 1.238.429.48.379.761.957.762 1.569.006 6.472 2.738 12.707 7.496 17.107.409.378.642.911.642 1.468s-.232 1.09-.642 1.468c-4.764 4.406-7.496 10.649-7.496 17.129 0 12.865 10.466 23.332 23.331 23.332s23.332-10.466 23.332-23.332c0-6.479-2.732-12.722-7.496-17.129-.409-.379-.642-.911-.642-1.468s.232-1.089.642-1.468c4.764-4.407 7.496-10.65 7.496-17.128 0-12.865-10.467-23.332-23.332-23.332-1.648 0-3.31.178-4.938.528-.599.129-1.225-.024-1.697-.416-.473-.391-.738-.978-.723-1.591l.006-.208c.004-.104.008-.209.008-.314 0-13.276-10.801-24.077-24.076-24.077-4.176 0-8.296 1.092-11.915 3.158-.487.279-1.072.339-1.605.167-.535-.173-.973-.563-1.206-1.074-3.904-8.573-12.508-14.113-21.917-14.113-10.667 0-20.179 7.155-23.131 17.4-.159.552-.547 1.008-1.066 1.254s-1.117.257-1.645.03c-3.007-1.292-6.2-1.946-9.492-1.946-13.276 0-24.077 10.801-24.077 24.077s10.801 24.077 24.077 24.077c10.667 0 20.179-7.155 23.131-17.399.159-.552.547-1.008 1.065-1.254.521-.245 1.119-.255 1.646-.03 3.007 1.292 6.201 1.946 9.492 1.946 4.176 0 8.296-1.092 11.915-3.158.487-.279 1.071-.338 1.605-.167.535.173.973.563 1.206 1.074 3.904 8.573 12.508 14.113 21.917 14.113 1.882 0 3.773-.225 5.623-.667.154-.037.31-.055.466-.055z" fill="#3762cc" data-original="#3762CC" class=""/></g></g><g><g><circle cx="177.158" cy="164.497" fill="#e0ebfc" r="25.637" data-original="#E0EBFC" class=""/></g></g><g><g><path d="m202.795 166.497c-1.104 0-2-.896-2-2 0-13.033-10.604-23.637-23.637-23.637-8.141 0-15.608 4.109-19.976 10.993-.591.933-1.827 1.21-2.76.618s-1.209-1.828-.617-2.76c5.104-8.047 13.834-12.851 23.353-12.851 15.239 0 27.637 12.398 27.637 27.637 0 1.104-.896 2-2 2z" fill="#3762cc" data-original="#3762CC" class=""/></g></g><g><g><g><path d="m235.764 195.657c-.115-6.29-5.512-11.212-11.803-11.212h-13.085c6.381 0 11.541-5.232 11.424-11.64-.115-6.29-5.512-11.212-11.803-11.212h-84.314l6.32-4.418c8.966-6.267 11.157-18.614 4.896-27.583-1.716-2.457-5.107-3.06-7.564-1.343-58.616 40.971-54.906 38.321-55.525 38.914-4.023 3.022-7.195 7.109-9.111 11.84h-56.831v52.585c0 2.209 1.791 4 4 4h52.831c4.134 10.209 14.135 17.412 25.825 17.412h108.126c6.31 0 11.426-5.115 11.426-11.426 0-6.31-5.116-11.426-11.426-11.426h15.581c6.291 0 11.688-4.922 11.803-11.212.117-6.408-5.042-11.64-11.424-11.64h9.23c6.381.001 11.541-5.231 11.424-11.639z" fill="#f9cfcf" data-original="#F9CFCF" class=""/></g></g><g><g><path d="m199.15 255h-108.127c-11.768 0-22.276-6.789-27.14-17.411h-51.515c-3.309 0-6-2.691-6-6v-52.584c0-1.104.896-2 2-2h55.517c2.049-4.462 5.171-8.361 9.094-11.341.358-.376 1.293-1.029 20.824-14.675 8.032-5.611 19.238-13.44 34.887-24.378 1.626-1.137 3.6-1.571 5.556-1.224s3.658 1.435 4.794 3.061c6.882 9.857 4.464 23.479-5.39 30.367l-1.113.778h77.961c7.478 0 13.669 5.911 13.803 13.175.066 3.635-1.299 7.064-3.844 9.656-.006.007-.013.013-.02.02h3.524c7.478 0 13.669 5.911 13.803 13.175.066 3.635-1.299 7.064-3.844 9.656-2.469 2.515-5.743 3.933-9.253 4.016.008.008.016.016.023.024 2.545 2.592 3.91 6.021 3.844 9.657-.134 7.265-6.325 13.175-13.803 13.175h-6.029c2.395 2.426 3.874 5.756 3.874 9.426 0 7.404-6.022 13.427-13.426 13.427zm-188.782-73.995v50.584c0 1.103.897 2 2 2h52.831c.814 0 1.548.494 1.854 1.249 3.976 9.818 13.385 16.162 23.97 16.162h108.127c5.197 0 9.426-4.229 9.426-9.426s-4.229-9.426-9.426-9.426c-1.104 0-2-.896-2-2s.896-2 2-2h15.581c5.312 0 9.71-4.148 9.803-9.248.047-2.553-.911-4.961-2.698-6.781s-4.176-2.823-6.726-2.823c-1.104 0-2-.896-2-2s.896-2 2-2h9.229c2.551 0 4.939-1.002 6.727-2.822 1.786-1.819 2.744-4.228 2.697-6.781-.093-5.1-4.491-9.249-9.803-9.249h-13.085c-1.104 0-2-.896-2-2s.896-2 2-2c2.551 0 4.939-1.002 6.727-2.822 1.786-1.819 2.744-4.228 2.697-6.781-.093-5.1-4.491-9.249-9.803-9.249h-84.313c-.873 0-1.646-.566-1.907-1.399-.263-.833.046-1.74.762-2.24l6.32-4.417c8.046-5.625 10.021-16.749 4.401-24.798-.524-.75-1.311-1.252-2.215-1.413-.901-.159-1.814.04-2.564.564-15.648 10.938-26.854 18.767-34.887 24.378-16.084 11.236-19.754 13.8-20.27 14.208-.035.038-.075.079-.13.131-.058.056-.119.107-.183.155-3.768 2.829-6.692 6.63-8.459 10.992-.306.755-1.039 1.25-1.854 1.25h-54.829z" fill="#3762cc" data-original="#3762CC" class=""/></g></g><g><g><path d="m210.876 186.445h-69.361c-1.104 0-2-.896-2-2s.896-2 2-2h69.361c1.104 0 2 .896 2 2s-.896 2-2 2z" fill="#3762cc" data-original="#3762CC" class=""/></g></g><g><g><path d="m224.34 209.297h-82.825c-1.104 0-2-.896-2-2s.896-2 2-2h82.825c1.104 0 2 .896 2 2s-.896 2-2 2z" fill="#3762cc" data-original="#3762CC" class=""/></g></g><g><g><path d="m215.11 232.148h-73.596c-1.104 0-2-.896-2-2s.896-2 2-2h73.596c1.104 0 2 .896 2 2s-.895 2-2 2z" fill="#3762cc" data-original="#3762CC" class=""/></g></g></g></g></g> </svg>
