<?xml version="1.0"?>
<svg xmlns="http://www.w3.org/2000/svg" id="Layer_1" enable-background="new 0 0 256 256" height="512px" viewBox="0 0 256 256" width="512px" class=""><g><g><g><path d="m123.385 241.045c1.789 3.099 5.752 4.161 8.851 2.372l19.893-11.486c3.874-2.236 5.201-7.19 2.964-11.063l-19.756-34.218c-2.236-3.874-7.19-5.201-11.063-2.964l-19.893 11.486c-2.626 1.516-3.781 4.592-2.987 7.381l-.884.508c-2.986 1.717-6.787.731-8.489-2.203l-44.111-76.019c-1.702-2.934-.661-6.704 2.325-8.421l.919-.528s0-.001-.001-.001c1.901 2.804 5.659 3.672 8.595 1.976l19.893-11.485c1.62-.935 2.883-2.425 3.537-4.177.816-2.186.686-4.707-.572-6.886l-19.755-34.219c-1.068-1.849-2.855-3.221-4.918-3.773-2.002-.536-4.209-.309-6.146.809l-19.893 11.485c-2.754 1.59-3.974 5.006-2.771 8.011l-8.255 4.747c-16.922 9.731-22.82 31.095-13.174 47.719l59.66 102.814c9.646 16.624 31.185 22.212 48.107 12.481l7.834-4.505z" fill="#f9a7a7" data-original="#F9A7A7" class=""/><g><g><g><path d="m97.653 252.162c-12.816.001-25.233-6.534-32.029-18.247l-59.659-102.814c-4.884-8.416-6.18-18.254-3.65-27.703 2.583-9.648 8.817-17.729 17.556-22.754l6.915-3.976c-.584-3.427 1.006-6.989 4.108-8.78l19.894-11.485c2.339-1.35 5.061-1.707 7.663-1.009 2.568.688 4.804 2.403 6.133 4.705l19.756 34.217c1.512 2.621 1.772 5.75.714 8.586-.818 2.19-2.385 4.04-4.411 5.21l-19.894 11.485c-3.26 1.884-7.327 1.337-9.995-1.125-.744.569-1.275 1.357-1.52 2.266-.283 1.059-.139 2.159.406 3.099l44.111 76.019c1.085 1.871 3.456 2.564 5.426 1.648-.28-3.23 1.314-6.394 4.205-8.063l19.894-11.485c4.82-2.785 11.01-1.126 13.795 3.696l19.756 34.218c2.784 4.822 1.126 11.011-3.696 13.795l-19.894 11.486c-3.513 2.026-7.882 1.249-10.506-1.63l-6.273 3.607c-5.936 3.411-12.421 5.033-18.805 5.034zm-41.826-193.116c-1.057 0-2.1.277-3.04.82l-19.893 11.485c-1.912 1.104-2.735 3.484-1.914 5.536.37.924.004 1.98-.859 2.477l-8.256 4.747c-7.81 4.49-13.38 11.707-15.687 20.321-2.252 8.414-1.1 17.172 3.246 24.661l59.659 102.814c9.08 15.647 29.438 20.918 45.38 11.751l7.834-4.505c.959-.551 2.182-.22 2.73.737.014.023.026.047.039.071.018.027.035.055.052.084 1.233 2.138 3.979 2.875 6.118 1.64l19.894-11.486c2.912-1.682 3.913-5.419 2.231-8.331l-19.755-34.218c-1.682-2.912-5.419-3.914-8.331-2.232l-19.894 11.485c-1.778 1.027-2.626 3.125-2.063 5.101.251.884-.131 1.826-.929 2.283l-.885.508c-3.931 2.263-8.963.946-11.214-2.933l-44.111-76.019c-1.083-1.867-1.371-4.048-.811-6.141.569-2.129 1.943-3.911 3.868-5.018l.919-.528c.908-.522 2.065-.255 2.652.611 1.311 1.933 3.92 2.531 5.938 1.365l19.895-11.485c1.224-.707 2.17-1.823 2.663-3.145.641-1.713.483-3.604-.431-5.187l-19.754-34.217c-.802-1.39-2.152-2.426-3.703-2.842-.525-.14-1.059-.21-1.588-.21z" fill="#3762cc" data-original="#3762CC" class=""/></g></g></g></g><g><g><path d="m196.308 161.031c32.745-9.737 56.633-40.049 56.633-75.957 0-43.769-35.481-79.25-79.25-79.25s-79.25 35.481-79.25 79.25c0 37.615 26.215 69.086 61.365 77.199l-.402 18.009c-.056 2.527 2.701 4.119 4.862 2.807z" fill="#a4c9ff" data-original="#A4C9FF" class=""/></g></g><g><g><g><g><g><path d="m197.371 98.219h-46.722c-7.589 0-13.742 6.152-13.742 13.742v17.245h11.18v12.841h51.119v-12.841h11.906c0-.429 0-17.674 0-17.245.001-7.589-6.151-13.742-13.741-13.742z" fill="#4671c6" data-original="#4671C6" class="active-path" style="fill:#533672" data-old_color="#4671c6"/></g></g><g><g><path d="m136.907 129.206h11.18v12.841h-11.18z" fill="#f9cfcf" data-original="#F9CFCF" class=""/></g></g><g><g><path d="m199.207 129.206h11.906v12.841h-11.906z" fill="#f9cfcf" data-original="#F9CFCF" class=""/></g></g><g><g><path d="m160.27 86.265v13.054.002c0 7.582 6.146 13.727 13.727 13.727 7.578 0 13.727-6.142 13.727-13.729 0-2.641 0-10.325 0-13.054z" fill="#f9cfcf" data-original="#F9CFCF" class=""/></g></g><g><g><path d="m174.01 88.573c-17.778 0-32.19-14.412-32.19-32.19v-13.483c0-4.469 3.623-8.091 8.091-8.091h56.289v21.574c.001 17.778-14.412 32.19-32.19 32.19z" fill="#4671c6" data-original="#4671C6" class="active-path" style="fill:#533672" data-old_color="#4671c6"/></g></g><g><g><path d="m201.427 58.559v-2.567c0-15.005-12.275-27.17-27.417-27.17-15.142 0-27.417 12.164-27.417 27.17v2.567c-4.761-.097-8.538 3.696-8.538 8.28 0 4.895 4.274 8.767 9.262 8.24 2.829 12.021 13.703 20.976 26.693 20.976 12.991 0 23.863-8.957 26.693-20.976 4.982.527 9.262-3.338 9.262-8.24 0-4.586-3.78-8.377-8.538-8.28z" fill="#f9cfcf" data-original="#F9CFCF" class=""/></g></g><g><g><path d="m206.201 53.289h-43.014c-9.164 0-16.593-7.429-16.593-16.593 0-9.164 7.429-16.593 16.593-16.593h28.155c8.206 0 14.859 6.653 14.859 14.859z" fill="#4671c6" data-original="#4671C6" class="active-path" style="fill:#533672" data-old_color="#4671c6"/></g></g></g></g></g><g><g><path d="m158.604 185.553c-.897 0-1.794-.232-2.599-.696-1.646-.95-2.642-2.72-2.599-4.62l.365-16.398c-16.976-4.287-32.332-14.13-43.386-27.846-11.571-14.358-17.944-32.441-17.944-50.918 0-44.801 36.448-81.25 81.25-81.25s81.25 36.449 81.25 81.25c0 17.859-5.686 34.803-16.443 49-10.352 13.663-25.035 23.882-41.367 28.798l-35.82 21.921c-.832.506-1.771.759-2.707.759zm15.087-177.728c-42.596 0-77.25 34.654-77.25 77.25 0 36.178 24.597 67.122 59.815 75.25.923.213 1.57 1.045 1.55 1.993l-.402 18.009c-.014.642.415.959.601 1.066.184.106.672.319 1.224-.013l36.036-22.054c.148-.09.308-.162.474-.211 32.503-9.665 55.203-40.111 55.203-74.04-.001-42.596-34.655-77.25-77.251-77.25z" fill="#3762cc" data-original="#3762CC" class=""/></g></g><g><g><path d="m211.113 144.047h-74.206c-1.104 0-2-.896-2-2v-30.086c0-8.68 7.062-15.742 15.742-15.742h7.62v-2.702c-1.896-1.192-3.64-2.586-5.199-4.154-.067-.069-.13-.142-.188-.218-3.333-3.419-5.764-7.55-7.095-12.038-2.336-.143-4.574-1.065-6.327-2.643-2.164-1.947-3.405-4.727-3.405-7.625 0-3.149 1.42-6.057 3.854-7.999-.06-.827-.09-1.649-.09-2.458v-13.482c0-3.591 1.911-6.882 4.957-8.683 1.222-9.124 9.098-16.114 18.41-16.114h28.155c9.139 0 16.66 7.39 16.849 16.509.007.065.01.131.01.197v21.574c0 .811-.03 1.634-.089 2.458 2.434 1.942 3.854 4.85 3.854 7.999 0 2.898-1.241 5.677-3.404 7.624-1.753 1.577-3.992 2.5-6.328 2.643-1.333 4.494-3.768 8.628-7.104 12.048-.055.074-.114.143-.179.208-1.564 1.576-3.318 2.976-5.225 4.172v2.685h7.646c8.681 0 15.742 7.062 15.742 15.742v30.086c0 1.103-.895 1.999-2 1.999zm-72.206-4h70.206v-28.086c0-6.475-5.268-11.742-11.742-11.742h-9.646c-1.104 0-2-.896-2-2v-5.816c0-.716.383-1.377 1.004-1.734 1.917-1.103 3.671-2.433 5.214-3.958.052-.068.108-.134.168-.195 3.297-3.321 5.595-7.435 6.646-11.896.229-.981 1.168-1.644 2.156-1.53 1.84.194 3.608-.374 4.972-1.601 1.342-1.207 2.08-2.858 2.08-4.65 0-2.178-1.121-4.17-2.998-5.329-.654-.404-1.019-1.147-.938-1.912.114-1.076.172-2.157.172-3.215v-21.409c-.004-.048-.006-.096-.007-.145-.071-7.018-5.837-12.727-12.852-12.727h-28.155c-7.608 0-13.993 5.946-14.537 13.537-.053.739-.511 1.389-1.188 1.688-2.212.974-3.642 3.162-3.642 5.573v13.483c0 1.052.058 2.134.173 3.215.081.765-.284 1.508-.938 1.912-1.877 1.159-2.998 3.151-2.998 5.33 0 1.766.759 3.461 2.081 4.651 1.362 1.227 3.131 1.795 4.971 1.6.989-.108 1.927.55 2.157 1.531 1.049 4.459 3.347 8.572 6.645 11.896.063.063.121.131.175.202 1.537 1.516 3.28 2.839 5.185 3.937.619.357 1.001 1.018 1.001 1.733v5.832c0 1.104-.896 2-2 2h-9.62c-6.475 0-11.742 5.267-11.742 11.742v28.083z" fill="#3762cc" data-original="#3762CC" class=""/></g></g><g><g><g><path d="m149.194 122.884c-10.426 0-18.908-8.482-18.908-18.908s8.482-18.909 18.908-18.909 18.908 8.482 18.908 18.909c.001 10.426-8.482 18.908-18.908 18.908zm0-32.817c-7.669 0-13.908 6.239-13.908 13.909 0 7.669 6.239 13.908 13.908 13.908s13.908-6.239 13.908-13.908c.001-7.669-6.239-13.909-13.908-13.909z" fill="#f9a7a7" data-original="#F9A7A7" class=""/></g></g><g><g><circle cx="149.194" cy="103.976" fill="#f9a7a7" r="7.356" data-original="#F9A7A7" class=""/></g></g></g><g><g><g><path d="m174.012 159.529c-10.427 0-18.909-8.482-18.909-18.909 0-10.426 8.482-18.908 18.909-18.908 10.426 0 18.908 8.482 18.908 18.908 0 10.427-8.482 18.909-18.908 18.909zm0-32.817c-7.67 0-13.909 6.239-13.909 13.908s6.239 13.909 13.909 13.909c7.669 0 13.908-6.239 13.908-13.909 0-7.668-6.239-13.908-13.908-13.908z" fill="#f9a7a7" data-original="#F9A7A7" class=""/></g></g><g><g><circle cx="174.011" cy="140.621" fill="#f9a7a7" r="7.356" data-original="#F9A7A7" class=""/></g></g></g><g><g><g><path d="m196.314 52.935c-9.995 0-18.126-8.131-18.126-18.126s8.131-18.126 18.126-18.126 18.126 8.131 18.126 18.126-8.13 18.126-18.126 18.126zm0-31.252c-7.237 0-13.126 5.888-13.126 13.126s5.889 13.126 13.126 13.126 13.126-5.889 13.126-13.126-5.888-13.126-13.126-13.126z" fill="#f9a7a7" data-original="#F9A7A7" class=""/></g></g><g><g><circle cx="196.314" cy="34.809" fill="#f9a7a7" r="7.005" data-original="#F9A7A7" class=""/></g></g></g></g></g> </svg>
