<?xml version="1.0"?>
<svg xmlns="http://www.w3.org/2000/svg" id="Capa_1" enable-background="new 0 0 512.03 512.03" height="512px" viewBox="0 0 512.03 512.03" width="512px" class=""><g><g><circle cx="241.011" cy="136.022" r="15" data-original="#000000" class="active-path" fill="#000000"/><path d="m196.011 331.009c24.813 0 45-20.187 45-45 0-16.917-17.243-27.426-45-27.426s-45 10.509-45 27.426c0 24.813 20.186 45 45 45zm0-42.426c6.492 0 11.394.916 14.346 1.813-1.88 6.138-7.601 10.614-14.346 10.614s-12.466-4.476-14.346-10.614c2.952-.897 7.854-1.813 14.346-1.813z" data-original="#000000" class="active-path" fill="#000000"/><path d="m316.011 331.009c24.813 0 45-20.187 45-45 0-16.917-17.243-27.426-45-27.426s-45 10.509-45 27.426c0 24.813 20.186 45 45 45zm0-42.426c6.492 0 11.394.916 14.346 1.813-1.88 6.138-7.601 10.614-14.346 10.614s-12.466-4.476-14.346-10.614c2.952-.897 7.854-1.813 14.346-1.813z" data-original="#000000" class="active-path" fill="#000000"/><path d="m22.516 376.072c-21.538 12.434-28.909 39.93-16.471 61.471 5.59 9.683 14.376 16.802 24.921 20.252-2.284 10.857-.512 22.026 5.079 31.709 12.43 21.534 39.923 28.91 61.471 16.472 17.273-9.972 25.1-29.345 21.764-47.207l31.219-18.024c1.663 6.473 7.52 11.265 14.512 11.265h181c7.02 0 12.897-4.83 14.532-11.343l32.187 18.215c-1.194 6.486-.939 13.21.818 19.769 6.436 24.025 31.087 38.257 55.114 31.82 23.296-6.243 37.269-29.541 32.402-52.676 10.545-3.451 19.331-10.569 24.921-20.251 12.435-21.537 5.073-49.035-16.471-61.472-17.285-9.98-38.024-7.068-51.839 4.819l-48.248-27.375c14.872-20.163 25.09-43.355 29.735-67.703l18.571-10.635c14.093 12.052 34.828 14.584 51.78 4.796 21.537-12.435 28.908-39.929 16.472-61.472-5.758-9.972-14.781-16.907-24.948-20.237 2.199-10.469.705-21.752-5.052-31.724-12.407-21.489-39.986-28.876-61.472-16.471-7.981 4.608-14.014 11.311-17.813 19.015-8.005-12.713-17.768-24.381-29.036-34.648 4.941-2.454 8.345-7.537 8.345-13.428 0-8.284-6.716-15-15-15h-16.259c-2.302-13.654-7.684-26.274-15.413-37.115l11.525-11.524c5.858-5.858 5.858-15.355 0-21.213-5.856-5.857-15.354-5.858-21.213 0l-11.527 11.526c-10.841-7.726-23.461-13.105-37.114-15.405v-17.267c0-8.284-6.716-15-15-15s-15 6.716-15 15v17.268c-13.652 2.3-26.272 7.679-37.113 15.405l-11.527-11.526c-5.857-5.857-15.355-5.857-21.213 0-5.858 5.858-5.857 15.355 0 21.213l11.524 11.524c-7.729 10.841-13.111 23.462-15.413 37.115h-17.259c-8.284 0-15 6.716-15 15 0 6.148 3.703 11.426 8.998 13.742-11.119 10.188-20.76 21.745-28.682 34.324-3.799-7.7-9.832-14.399-17.81-19.005-21.488-12.407-49.064-5.017-61.472 16.472-5.757 9.972-7.251 21.254-5.052 31.724-10.165 3.331-19.191 10.267-24.948 20.238-12.435 21.537-5.069 49.035 16.472 61.47 17.275 9.974 37.967 7.062 51.764-4.754l18.513 10.688c4.533 24.36 14.5 47.469 29.006 67.483l-47.519 27.435c-13.781-11.808-34.47-14.738-51.761-4.755zm395.871-158.955c7.265-4.085 9.818-13.333 5.638-20.574-4.135-7.163-1.672-16.355 5.49-20.491 7.164-4.137 16.354-1.671 20.491 5.49 4.135 7.163 1.672 16.355-5.491 20.491-7.211 4.163-9.613 13.35-5.49 20.49 4.143 7.175 13.316 9.632 20.49 5.49 7.163-4.136 16.355-1.672 20.491 5.49 4.145 7.18 1.689 16.345-5.491 20.491-7.164 4.135-16.354 1.672-20.49-5.491-4.132-7.157-13.274-9.623-20.444-5.516l-11.707 6.704c-.43-10.866-1.96-21.578-4.516-31.996zm-328.241 32.623-11.649-6.726c-7.168-4.14-16.35-1.684-20.49 5.491-4.137 7.165-13.296 9.642-20.49 5.489-7.179-4.144-9.637-13.31-5.491-20.489 4.136-7.163 13.328-9.625 20.491-5.491 7.174 4.143 16.348 1.684 20.49-5.49 4.115-7.128 1.731-16.321-5.49-20.49-7.163-4.136-9.626-13.328-5.491-20.49 4.135-7.164 13.327-9.627 20.491-5.491 7.162 4.136 9.625 13.328 5.49 20.491-4.143 7.174-1.684 16.348 5.49 20.49l1.165.672c-2.558 10.431-4.09 21.155-4.516 32.034zm343.486 163.35c7.168 4.066 16.273 1.589 20.393-5.547 4.146-7.18 13.309-9.637 20.49-5.49 7.179 4.145 9.637 13.308 5.49 20.491-4.144 7.178-13.306 9.635-20.49 5.49-7.175-4.143-16.348-1.685-20.49 5.49-4.115 7.128-1.731 16.321 5.49 20.49 3.471 2.004 5.952 5.238 6.989 9.108 2.146 8.007-2.598 16.225-10.606 18.372-8.009 2.144-16.226-2.598-18.372-10.606-1.036-3.87-.504-7.913 1.499-11.382 4.176-7.234 1.632-16.46-5.603-20.555l-57.411-32.49v-22.877c2.77-2.295 5.448-4.679 8.052-7.129zm-177.621-352.068c33.084 0 60 26.916 60 60 0 33.034-26.836 59.916-59.852 59.996-.05 0-.098-.007-.148-.007s-.098.007-.148.007c-33.016-.081-59.852-26.962-59.852-59.996 0-33.084 26.916-60 60-60zm-136 194.987c0-40.769 19.18-79.401 51.131-105.035 2.817 7.957 6.717 15.405 11.531 22.161l-11.515 11.514c-5.858 5.858-5.858 15.355 0 21.213 5.857 5.858 15.354 5.858 21.213 0l11.513-11.513c10.844 7.731 23.469 13.113 37.126 15.415v16.246c0 8.284 6.716 15 15 15s15-6.716 15-15v-16.246c13.658-2.301 26.283-7.684 37.127-15.415l11.514 11.514c5.857 5.857 15.355 5.858 21.213 0s5.858-15.355 0-21.213l-11.515-11.515c4.814-6.755 8.714-14.204 11.53-22.16 31.952 25.634 51.131 64.266 51.131 105.034 0 42.137-20.892 82.543-55.044 108.354-3.751 2.835-5.956 7.265-5.956 11.967v45.679h-30v-45c0-8.284-6.716-15-15-15s-15 6.716-15 15v45h-30v-45c0-8.284-6.716-15-15-15s-15 6.716-15 15v45h-31v-45.679c0-4.702-2.205-9.132-5.956-11.967-33.84-25.573-54.043-66.08-54.043-108.354zm21.943 120.387c2.604 2.471 5.284 4.873 8.057 7.178v22.811l-56.515 32.628c-7.17 4.139-9.632 13.317-5.49 20.491 4.145 7.18 1.69 16.344-5.49 20.49-7.179 4.144-16.345 1.692-20.49-5.491-4.145-7.178-1.692-16.343 5.49-20.49 7.211-4.163 9.613-13.349 5.49-20.49-4.143-7.175-13.315-9.631-20.49-5.49-7.179 4.144-16.345 1.69-20.49-5.491-4.145-7.178-1.692-16.343 5.49-20.49 7.181-4.146 16.343-1.69 20.49 5.49 4.138 7.17 13.319 9.634 20.49 5.491z" data-original="#000000" class="active-path" fill="#000000"/></g></g> </svg>
