<?xml version="1.0"?>
<svg xmlns="http://www.w3.org/2000/svg" id="Capa_1" enable-background="new 0 0 512 512" height="512px" viewBox="0 0 512 512" width="512px" class=""><g><g><path d="m3.767 300c-2.476-14.295-3.767-28.997-3.767-44 0-141.385 114.615-256 256-256s256 114.615 256 256c0 15.003-1.291 29.705-3.767 44z" fill="#7cd2e3" data-original="#7CD2E3" class=""/><path d="m63.707 425c-32.598-37.062-54.651-83.625-61.469-135h507.523c-6.818 51.375-28.87 97.938-61.469 135z" fill="#44bfd7" data-original="#44BFD7" class=""/><path d="m454.232 418c-43.989 53.763-109.417 89.303-183.232 93.568-1.651.095-4.008-3.632-5.666-3.568-3.329.128-14.075.303-17.5.167-1.522-.06-5.199 3.495-6.714 3.408-73.865-4.234-139.339-39.783-183.352-93.575z" fill="#2cb3cd" data-original="#2CB3CD" class=""/><path d="m271 390v121.567c-4.963.287-9.965.433-15 .433s-10.037-.146-15-.433v-121.567z" fill="#c8d2dc" data-original="#C8D2DC"/><path d="m241 471.043v-92.085c0-8.218 6.63-14.953 14.849-14.958h.151s.101 0 .151 0c8.219.005 14.849 6.739 14.849 14.958v92.085c0 8.261-6.697 14.957-14.957 14.957h-.086c-8.26 0-14.957-6.697-14.957-14.957z" fill="#dce6eb" data-original="#DCE6EB"/><path d="m476.787 250.787-199.574 199.573c-11.716 11.716-30.711 11.716-42.426 0l-199.574-199.573c-11.716-11.715-11.716-30.71 0-42.426l199.574-199.574c11.716-11.715 30.711-11.715 42.426 0l199.574 199.573c11.716 11.716 11.716 30.711 0 42.427z" fill="#fff04a" data-original="#FFF04A" class=""/><path d="m88.787 250.787 194 194-5.574 5.574c-11.716 11.716-30.711 11.716-42.426 0l-199.574-199.574c-11.716-11.715-11.716-30.71 0-42.426l199.574-199.574c11.716-11.715 30.711-11.715 42.426 0l5.574 5.574-194 194c-11.716 11.715-11.716 30.71 0 42.426z" fill="#eac23f" data-original="#EAC23F" class=""/><path d="m432.697 213.663-160.787-160.785c-4.249-4.25-9.899-6.591-15.91-6.591-6.01 0-11.66 2.341-15.91 6.59l-160.787 160.787c-8.772 8.772-8.772 23.047 0 31.82l160.787 160.787v-.001c4.25 4.25 9.9 6.591 15.91 6.591 6.011 0 11.661-2.341 15.91-6.59l160.787-160.787c8.772-8.773 8.772-23.047 0-31.821zm-10.607 21.214-160.787 160.787c-1.416 1.416-3.3 2.196-5.303 2.196s-3.886-.78-5.303-2.196v-.001l-160.787-160.785c-2.924-2.925-2.924-7.684 0-10.607l160.787-160.788c1.417-1.416 3.3-2.196 5.303-2.196s3.887.78 5.303 2.197l160.787 160.786c2.924 2.924 2.924 7.683 0 10.607zm-86.394 2.683c-7.221 7.222-16.415 11.295-25.862 12.224 2.369-6.29 3.666-13.102 3.666-20.21 0-22.053-12.479-41.246-30.745-50.888 6.881-4.796 15.24-7.612 24.245-7.612 4.143 0 7.5-3.357 7.5-7.5s-3.357-7.5-7.5-7.5c-15.885 0-30.286 6.475-40.703 16.924-3.342-.607-6.783-.924-10.297-.924-2.916 0-5.782.219-8.583.64-10.394-10.282-24.677-16.64-40.417-16.64-4.142 0-7.5 3.357-7.5 7.5s3.358 7.5 7.5 7.5c8.633 0 16.672 2.587 23.385 7.027-18.885 9.436-31.885 28.965-31.885 51.473 0 7.108 1.297 13.92 3.666 20.21-9.448-.928-18.642-5.002-25.863-12.224-2.929-2.928-7.678-2.928-10.606 0-2.929 2.93-2.929 7.678 0 10.607 11.209 11.209 25.934 16.814 40.658 16.814 1.417 0 2.834-.053 4.248-.156 2.683 3.447 5.748 6.581 9.133 9.339-1.124 16.044 4.433 32.474 16.672 44.713 1.464 1.464 3.384 2.196 5.303 2.196s3.839-.732 5.303-2.196c2.929-2.93 2.929-7.678 0-10.607-7.057-7.058-11.108-16-12.154-25.222 6.547 2.597 13.68 4.025 21.14 4.025s14.593-1.428 21.14-4.025c-1.046 9.222-5.097 18.164-12.155 25.222-2.929 2.93-2.929 7.678 0 10.607 1.465 1.464 3.385 2.196 5.304 2.196s3.839-.732 5.304-2.196c12.239-12.239 17.796-28.668 16.672-44.713 3.384-2.757 6.45-5.892 9.133-9.339 1.414.104 2.83.156 4.247.156 14.725 0 29.449-5.605 40.659-16.814 2.929-2.93 2.929-7.678 0-10.607-2.93-2.928-7.678-2.928-10.608 0zm-99.64 29.536c1.869-6.939 5.522-13.493 10.958-18.929 2.929-2.93 2.929-7.678 0-10.607-2.929-2.928-7.678-2.928-10.606 0-5.325 5.326-11.723 8.939-18.504 10.842-2.818-5.678-4.403-12.072-4.403-18.829 0-18.522 11.91-34.314 28.474-40.122 4.744 6.857 7.526 15.17 7.526 24.122 0 4.143 3.358 7.5 7.5 7.5 4.143 0 7.5-3.357 7.5-7.5 0-8.693 2.624-16.785 7.122-23.526 15.728 6.238 26.878 21.604 26.878 39.526 0 6.757-1.585 13.15-4.403 18.828-6.781-1.902-13.18-5.517-18.504-10.842-2.93-2.928-7.678-2.928-10.607 0-2.929 2.93-2.929 7.678 0 10.607 5.436 5.436 9.089 11.99 10.958 18.929-5.951 3.176-12.741 4.978-19.944 4.978-7.204 0-13.994-1.802-19.945-4.977z" fill="#533672" data-original="#533672" class="active-path"/></g></g> </svg>
