<?xml version="1.0"?>
<svg xmlns="http://www.w3.org/2000/svg" id="Capa_1" enable-background="new 0 0 512 512" height="512px" viewBox="0 0 512 512" width="512px"><g><g><path d="m0 256c0-141.272 114.432-255.817 255.662-256 140.367-.182 255.325 113.76 256.332 254.123.6 83.649-38.923 158.094-100.466 205.234-2.034 1.558-4.844 1.651-6.928.162-41.898-29.917-93.193-47.519-148.6-47.519-55.268 0-106.445 17.514-148.285 47.295-2.274 1.618-5.336 1.527-7.549-.174-60.907-46.798-100.166-120.375-100.166-203.121z" fill="#9bcf1b" data-original="#9BCF1B"/><path d="m512 256c0 83.231-39.72 157.185-101.239 203.941-8.517 6.473-20.761.445-20.761-10.253v-189.688h70c5.523 0 10-4.477 10-10v-40c0-5.523 4.477-10 10-10h25.856c4.022 18.024 6.144 36.764 6.144 56zm-282-116v-30c0-5.523-4.477-10-10-10h-30.001c-5.603 0-9.889-4.602-10.001-10.204-.109-5.429-4.543-9.796-9.998-9.796h-50v160h-30c-5.523 0-10 4.477-10 10v20c0 5.523-4.477 10-10 10-5.523 0-10-4.477-10-10v-140c0-5.523-4.477-10-10-10h-10.927c-24.756 39.404-39.073 86.03-39.073 136 0 83.02 39.519 156.81 100.771 203.585 8.873 6.776 19.747 10.415 30.912 10.415h8.317v-160h20v20h110v-180h-30c-5.523 0-10-4.477-10-10z" fill="#84b017" data-original="#84B017"/><path d="m122.5 190c-4.142 0-7.5-3.358-7.5-7.5v-115c0-4.142 3.358-7.5 7.5-7.5 4.142 0 7.5 3.358 7.5 7.5v115c0 4.142-3.358 7.5-7.5 7.5z" fill="#c8d2dc" data-original="#C8D2DC"/><path d="m412 458.994c-43.189 33.24-97.286 53.006-156 53.006s-112.811-19.766-156-53.006v-246.994h312z" fill="#fff68e" data-original="#FFF68E"/><path d="m295 509.048v-297.048h117v246.994c-33.436 25.733-73.409 43.391-117 50.054z" fill="#fffac1" data-original="#FFFAC1"/><path d="m100 212h30v266.896c-10.483-5.938-20.505-12.595-30-19.903z" fill="#ffcd71" data-original="#FFCD71"/><path d="m200 170v30c0 5.523-4.477 10-10 10h-80c-5.523 0-10-4.477-10-10v-30c0-5.523 4.477-10 10-10h80c5.523 0 10 4.477 10 10z" fill="#ffb655" data-original="#FFB655"/><path d="m170 340h-30c-5.523 0-10-4.477-10-10v-70c0-5.523 4.477-10 10-10h30c5.523 0 10 4.477 10 10v70c0 5.523-4.477 10-10 10zm87.5-10v-70c0-5.523-4.477-10-10-10h-30c-5.523 0-10 4.477-10 10v70c0 5.523 4.477 10 10 10h30c5.523 0 10-4.477 10-10zm-77.5 140.667v-63.167c0-5.523-4.477-10-10-10h-30c-5.523 0-10 4.477-10 10v63.167c0 5.523 4.477 10 10 10h30c5.523 0 10-4.477 10-10zm82.5 0v-63.167c0-5.523-4.477-10-10-10h-31.5c-5.523 0-10 4.477-10 10v63.167c0 5.523 4.477 10 10 10h31.5c5.523 0 10-4.477 10-10z" fill="#754ca0" data-original="#754CA0"/><path d="m180 260v16.63c-9.954 14.135-26.398 23.37-45 23.37-1.686 0-3.353-.076-5-.224v-39.776c0-5.523 4.477-10 10-10h30c5.523 0 10 4.477 10 10zm-10 137.5h-30c-5.523 0-10 4.477-10 10v39.776c1.647.148 3.314.224 5 .224 18.602 0 35.046-9.235 45-23.37v-16.63c0-5.523-4.477-10-10-10zm82.5 0h-31.5c-5.523 0-10 4.477-10 10v39.776c1.647.148 3.314.224 5 .224 18.602 0 36.546-9.235 46.5-23.37v-16.63c0-5.523-4.477-10-10-10zm5-120.87v-16.63c0-5.523-4.477-10-10-10h-30c-5.523 0-10 4.477-10 10v39.776c1.647.148 3.314.224 5 .224 18.602 0 35.046-9.235 45-23.37z" fill="#865cb2" data-original="#865CB2"/><path d="m252.5 390h-31.5c-9.649 0-17.5 7.851-17.5 17.5v70c0 9.649 7.851 17.5 17.5 17.5h31.5c9.649 0 17.5-7.851 17.5-17.5v-70c0-9.649-7.851-17.5-17.5-17.5zm2.5 87.5c0 1.378-1.121 2.5-2.5 2.5h-31.5c-1.379 0-2.5-1.122-2.5-2.5v-50h36.5zm0-60h-36.5v-10c0-1.378 1.121-2.5 2.5-2.5h31.5c1.379 0 2.5 1.122 2.5 2.5zm-37.5-70h30c9.649 0 17.5-7.851 17.5-17.5v-70c0-9.649-7.851-17.5-17.5-17.5h-30c-9.649 0-17.5 7.851-17.5 17.5v70c0 9.649 7.851 17.5 17.5 17.5zm-2.5-87.5c0-1.378 1.121-2.5 2.5-2.5h30c1.379 0 2.5 1.122 2.5 2.5v10h-35zm0 20h35v50c0 1.378-1.121 2.5-2.5 2.5h-30c-1.379 0-2.5-1.122-2.5-2.5zm-45-37.5h-30c-9.649 0-17.5 7.851-17.5 17.5v70c0 9.649 7.851 17.5 17.5 17.5h30c9.649 0 17.5-7.851 17.5-17.5v-70c0-9.649-7.851-17.5-17.5-17.5zm2.5 87.5c0 1.378-1.121 2.5-2.5 2.5h-30c-1.379 0-2.5-1.122-2.5-2.5v-50h35zm0-60h-35v-10c0-1.378 1.121-2.5 2.5-2.5h30c1.379 0 2.5 1.122 2.5 2.5zm-2.5 120h-30c-9.649 0-17.5 7.851-17.5 17.5v66.978c13.125 8.037 27.03 14.924 41.575 20.522h5.925c9.649 0 17.5-7.851 17.5-17.5v-70c0-9.649-7.851-17.5-17.5-17.5zm2.5 87.5c0 1.378-1.121 2.5-2.5 2.5h-30c-1.379 0-2.5-1.122-2.5-2.5v-50h35zm0-60h-35v-10c0-1.378 1.121-2.5 2.5-2.5h30c1.379 0 2.5 1.122 2.5 2.5z" fill="#fff5f5" data-original="#FFF5F5"/><path d="m80 205c0-8.284 6.716-15 15-15h322c8.284 0 15 6.716 15 15s-6.716 15-15 15h-322c-8.284 0-15-6.716-15-15zm215 125h-200c-8.284 0-15 6.716-15 15s6.716 15 15 15h200c8.284 0 15-6.716 15-15s-6.716-15-15-15zm-116.687 170h116.687c1.575 0 3.145-.24 4.641-.732.224-.073.447-.147.671-.221 16.074-5.329 12.294-29.047-4.64-29.047h-180.223c19.294 12.698 40.407 22.856 62.864 30z" fill="#ffcd71" data-original="#FFCD71"/><path d="m293.083 470h103.468c-19.294 12.698-40.407 22.856-62.865 30h-40.604c-8.284 0-15-6.716-15-15s6.717-15 15.001-15zm123.917-140h-123.917c-8.284 0-15 6.716-15 15s6.716 15 15 15h123.917c8.284 0 15-6.716 15-15s-6.716-15-15-15z" fill="#ffd993" data-original="#FFD993"/><path d="m383.752 230.167v247.728c-4.9 2.827-9.902 5.497-15 8.001v-255.73c0-4.142 3.358-7.5 7.5-7.5 4.142.001 7.5 3.358 7.5 7.501zm-56.568-7.5c-4.142 0-7.5 3.358-7.5 7.5v273.849c5.062-1.296 10.064-2.743 15-4.335v-269.514c0-4.143-3.358-7.5-7.5-7.5z" fill="#c8d2dc" data-original="#C8D2DC"/><path d="m377.918 467.5c0 4.142-3.358 7.5-7.5 7.5h-37.751c-4.142 0-7.5-3.358-7.5-7.5s3.358-7.5 7.5-7.5h37.751c4.142 0 7.5 3.358 7.5 7.5zm-7.5-43.75h-37.751c-4.142 0-7.5 3.358-7.5 7.5s3.358 7.5 7.5 7.5h37.751c4.142 0 7.5-3.358 7.5-7.5s-3.358-7.5-7.5-7.5zm-37.751-130h37.751c4.142 0 7.5-3.358 7.5-7.5s-3.358-7.5-7.5-7.5h-37.751c-4.142 0-7.5 3.358-7.5 7.5s3.357 7.5 7.5 7.5zm37.751 21.25h-37.751c-4.142 0-7.5 3.358-7.5 7.5s3.358 7.5 7.5 7.5h37.751c4.142 0 7.5-3.358 7.5-7.5s-3.358-7.5-7.5-7.5zm0 72.5h-37.751c-4.142 0-7.5 3.358-7.5 7.5s3.358 7.5 7.5 7.5h37.751c4.142 0 7.5-3.358 7.5-7.5s-3.358-7.5-7.5-7.5zm0-36.25h-37.751c-4.142 0-7.5 3.358-7.5 7.5s3.358 7.5 7.5 7.5h37.751c4.142 0 7.5-3.358 7.5-7.5s-3.358-7.5-7.5-7.5z" fill="#b9c3cd" data-original="#B9C3CD"/><path d="m364.716 314.37-91.81-125.51c-34.572-47.263-29.531-112.672 11.876-154.079 46.375-46.375 121.563-46.375 167.938 0 41.407 41.407 46.448 106.816 11.876 154.079l-91.81 125.51c-1.996 2.731-6.072 2.731-8.07 0z" fill="#fb5858" data-original="#FB5858"/><path d="m390.376 290.326-17.589 24.045c-1.997 2.731-6.073 2.731-8.071 0l-91.81-125.51c-34.572-47.263-29.531-112.672 11.876-154.079 28.713-28.713 68.469-39.648 105.594-32.807-22.839 4.208-44.682 15.143-62.345 32.806-41.406 41.406-46.448 106.816-11.876 154.079z" fill="#f44545" data-original="#F44545"/><path d="m459.421 121.248c0 50.075-40.594 90.669-90.669 90.669s-90.669-40.594-90.669-90.669 40.594-90.669 90.669-90.669 90.669 40.594 90.669 90.669z" fill="#fff5f5" data-original="#FFF5F5"/><path d="m407.153 163.916h-76.802v-69.335h76.802z" fill="#a2abb8" data-original="#A2ABB8"/><path d="m380.819 142.582h-24.134c-2.761 0-5-2.239-5-5v-16.667c0-2.761 2.239-5 5-5h24.134c2.761 0 5 2.239 5 5v16.667c0 2.761-2.239 5-5 5z" fill="#ffc14f" data-original="#FFC14F"/><path d="m410.32 175.383h-83.136c-4.142 0-7.5-3.358-7.5-7.5v-1c0-4.142 3.358-7.5 7.5-7.5h83.136c4.142 0 7.5 3.358 7.5 7.5v1c0 4.142-3.358 7.5-7.5 7.5z" fill="#c8d2dc" data-original="#C8D2DC"/><path d="m386.751 89.303v-33.136c0-4.142 3.358-7.5 7.5-7.5h1c4.142 0 7.5 3.358 7.5 7.5v33.136c0 4.142-3.358 7.5-7.5 7.5h-1c-4.142 0-7.5-3.358-7.5-7.5z" fill="#dce6eb" data-original="#DCE6EB"/><path d="m312.859 99.508 53.818-45.828c1.196-1.018 2.954-1.018 4.149 0l53.818 45.828c2.266 1.929.901 5.636-2.075 5.636h-107.635c-2.976 0-4.34-3.707-2.075-5.636z" fill="#e5554e" data-original="#E5554E" class="active-path"/></g></g> </svg>
