<?xml version="1.0"?>
<svg xmlns="http://www.w3.org/2000/svg" id="Layer_1" enable-background="new 0 0 256 256" height="512px" viewBox="0 0 256 256" width="512px" class=""><g><g><g><g><path d="m175.802 163.183h-95.604c-15.529 0-28.118 12.641-28.118 28.235v22.853 12.58h25.001v25.91h101.837v-25.91h25.001v-12.58-22.853c.001-15.593-12.588-28.235-28.117-28.235z" fill="#4671c6" data-original="#4671C6" class="active-path" style="fill:#533672" data-old_color="#4671c6"/></g></g><g><g><path d="m99.32 138.62v26.822.003c0 15.578 12.576 28.206 28.089 28.206 15.506 0 28.089-12.619 28.089-28.209 0-5.426 0-21.214 0-26.822z" fill="#f9cfcf" data-original="#F9CFCF" class=""/></g></g><g><g><path d="m52.08 226.852h25.001v25.91h-25.001z" fill="#f9cfcf" data-original="#F9CFCF" class=""/></g></g><g><g><path d="m178.919 226.852h25.001v25.91h-25.001z" fill="#f9cfcf" data-original="#F9CFCF" class=""/></g></g><g><g><path d="m203.92 254.762h-151.84c-1.104 0-2-.896-2-2v-61.343c0-16.672 13.511-30.235 30.118-30.235h17.122v-22.564c0-1.104.896-2 2-2h56.178c1.104 0 2 .896 2 2v22.563h18.304c16.607 0 30.118 13.563 30.118 30.235v61.343c0 1.105-.896 2.001-2 2.001zm-149.84-4h147.84v-59.343c0-14.466-11.717-26.235-26.118-26.235h-20.304c-1.104 0-2-.896-2-2v-22.564h-52.178v22.563c0 1.104-.896 2-2 2h-19.122c-14.401 0-26.118 11.769-26.118 26.235z" fill="#3762cc" data-original="#3762CC" class=""/></g></g><g><g><path d="m77.081 254.762c-1.104 0-2-.896-2-2v-44.789c0-1.104.896-2 2-2s2 .896 2 2v44.789c0 1.104-.895 2-2 2z" fill="#3762cc" data-original="#3762CC" class=""/></g></g><g><g><path d="m178.919 254.762c-1.104 0-2-.896-2-2v-44.789c0-1.104.896-2 2-2s2 .896 2 2v44.789c0 1.104-.896 2-2 2z" fill="#3762cc" data-original="#3762CC" class=""/></g></g><g><g><path d="m77.081 254.762h-25.001c-1.104 0-2-.896-2-2v-25.909c0-1.104.896-2 2-2h25.001c1.104 0 2 .896 2 2v25.909c0 1.104-.895 2-2 2zm-23.001-4h21.001v-21.909h-21.001z" fill="#3762cc" data-original="#3762CC" class=""/></g></g><g><g><path d="m203.92 254.762h-25.001c-1.104 0-2-.896-2-2v-25.909c0-1.104.896-2 2-2h25.001c1.104 0 2 .896 2 2v25.909c0 1.104-.896 2-2 2zm-23.001-4h21.001v-21.909h-21.001z" fill="#3762cc" data-original="#3762CC" class=""/></g></g></g><g><g><g><path d="m128 143.344c-36.378 0-65.868-29.49-65.868-65.868v-27.589c0-9.144 7.413-16.557 16.557-16.557h115.18v44.146c-.001 36.378-29.491 65.868-65.869 65.868z" fill="#4671c6" data-original="#4671C6" class="active-path" style="fill:#533672" data-old_color="#4671c6"/></g></g><g><g><path d="m128 145.344c-37.423 0-67.868-30.445-67.868-67.868v-27.589c0-10.232 8.324-18.557 18.557-18.557h115.18c1.104 0 2 .896 2 2v44.146c-.001 37.422-30.446 67.868-67.869 67.868zm-49.312-110.014c-8.026 0-14.557 6.53-14.557 14.557v27.589c0 35.217 28.651 63.868 63.868 63.868s63.868-28.651 63.868-63.868v-42.146z" fill="#3762cc" data-original="#3762CC" class=""/></g></g><g><g><path d="m184.1 81.928v-5.253c0-30.704-25.117-55.595-56.1-55.595-30.983 0-56.1 24.891-56.1 55.595v5.253c-9.741-.198-17.47 7.563-17.47 16.943 0 10.017 8.745 17.94 18.952 16.861 5.79 24.597 28.039 42.922 54.619 42.922 26.582 0 48.829-18.327 54.619-42.922 10.193 1.078 18.952-6.83 18.952-16.861-.002-9.385-7.736-17.14-17.472-16.943z" fill="#f9cfcf" data-original="#F9CFCF" class=""/></g></g><g><g><path d="m128 160.654c-26.575 0-49.428-17.525-56.155-42.829-4.826.077-9.542-1.671-13.141-4.908-3.987-3.588-6.274-8.708-6.274-14.046 0-5.11 2.019-9.903 5.685-13.495 3.208-3.143 7.335-5.016 11.785-5.385v-3.316c0-31.758 26.063-57.595 58.101-57.595s58.101 25.837 58.101 57.595v3.316c4.451.369 8.576 2.242 11.785 5.386 3.666 3.592 5.685 8.384 5.685 13.494 0 5.338-2.286 10.457-6.273 14.044-3.6 3.238-8.306 4.951-13.142 4.91-6.73 25.304-29.583 42.829-56.157 42.829zm-54.616-46.922c.917 0 1.73.631 1.945 1.542 5.733 24.364 27.393 41.38 52.671 41.38 25.277 0 46.937-17.016 52.671-41.38.231-.981 1.167-1.641 2.157-1.531 4.311.452 8.604-.931 11.793-3.801 3.146-2.83 4.949-6.865 4.949-11.071 0-4.026-1.593-7.804-4.484-10.637-2.92-2.861-6.818-4.379-10.944-4.307-.536.016-1.057-.195-1.44-.571-.384-.376-.601-.891-.601-1.429v-5.253c0-29.553-24.27-53.595-54.101-53.595s-54.101 24.044-54.101 53.596v5.253c0 .538-.217 1.052-.601 1.429-.384.376-.898.59-1.44.571-4.108-.071-8.024 1.445-10.944 4.306-2.892 2.834-4.484 6.612-4.484 10.638 0 4.206 1.805 8.241 4.95 11.072 3.188 2.869 7.481 4.252 11.792 3.799.07-.008.141-.011.212-.011z" fill="#3762cc" data-original="#3762CC" class=""/></g></g><g><g><path d="m193.868 71.145h-88.015c-18.752 0-33.953-15.201-33.953-33.953 0-18.752 15.201-33.953 33.953-33.953h57.611c16.792 0 30.404 13.612 30.404 30.404z" fill="#4671c6" data-original="#4671C6" class="active-path" style="fill:#533672" data-old_color="#4671c6"/></g></g><g><g><path d="m193.868 73.145h-88.016c-19.824 0-35.953-16.128-35.953-35.953s16.129-35.954 35.954-35.954h57.611c17.868 0 32.404 14.537 32.404 32.404v37.502c0 1.105-.895 2.001-2 2.001zm-88.015-67.907c-17.619 0-31.953 14.334-31.953 31.954s14.334 31.953 31.953 31.953h86.016v-35.503c0-15.662-12.742-28.404-28.404-28.404z" fill="#3762cc" data-original="#3762CC" class=""/></g></g><g><g><ellipse cx="128" cy="133.775" fill="#f9a7a7" rx="21.515" ry="16.513" data-original="#F9A7A7" class=""/></g></g><g><g><path d="m90.34 109.295c-.704 0-1.387-.372-1.752-1.031-.535-.966-.186-2.184.781-2.719l13.75-7.617-13.75-7.617c-.967-.535-1.316-1.752-.781-2.719.536-.966 1.756-1.314 2.719-.78l16.909 9.366c.637.353 1.031 1.022 1.031 1.75s-.395 1.397-1.031 1.75l-16.909 9.367c-.307.169-.64.25-.967.25z" fill="#3762cc" data-original="#3762CC" class=""/></g></g><g><g><path d="m165.606 109.295c-.328 0-.66-.081-.967-.251l-16.91-9.367c-.637-.353-1.031-1.022-1.031-1.75s.395-1.397 1.031-1.75l16.91-9.366c.967-.535 2.185-.185 2.719.78.535.966.186 2.184-.781 2.719l-13.751 7.617 13.751 7.617c.967.535 1.316 1.752.781 2.719-.365.66-1.047 1.032-1.752 1.032z" fill="#3762cc" data-original="#3762CC" class=""/></g></g><g><g><path d="m140.413 137.896h-24.826c-2.137 0-3.869 1.732-3.869 3.869v65.24 13.94 14.39c0 2.484 1.816 4.702 4.289 4.937 2.836.27 5.222-1.953 5.222-4.733v-13.6c0-.549.445-.994.994-.994s.994.445.994.994v22.101c0 2.484 1.816 4.702 4.288 4.938 2.836.27 5.223-1.953 5.223-4.733v-11.15c0-.564.457-1.021 1.021-1.021.564 0 1.021.457 1.021 1.021v1.913c0 2.484 1.816 4.702 4.289 4.938 2.836.27 5.223-1.953 5.223-4.733v-14.267-14.267-64.913c0-2.137-1.732-3.87-3.869-3.87z" fill="#6bdddd" data-original="#6BDDDD" class=""/></g></g><g><g><circle cx="134.776" cy="171.653" fill="#ffea92" r="4.443" data-original="#FFEA92" class=""/></g></g><g><g><circle cx="122.333" cy="189.086" fill="#ffea92" r="4.443" data-original="#FFEA92" class=""/></g></g><g><g><circle cx="133.219" cy="208.546" fill="#ffea92" r="4.443" data-original="#FFEA92" class=""/></g></g><g><g><circle cx="124.333" cy="153.213" fill="#ffea92" r="4.443" data-original="#FFEA92" class=""/></g></g></g></g> </svg>
